<svg
  baseProfile="tiny"
  preserveAspectRatio="true"
  version="1.2"
  viewBox="0 0 640 200"
  height="100%" width="100%"
  xmlns="http://www.w3.org/2000/svg"
  xmlns:ev="http://www.w3.org/2001/xml-events"
  xmlns:xlink="http://www.w3.org/1999/xlink"
>
  <g>
  <rect width="8" height="150.7030819210515" x="1" y="24.648459039474247" rx="5" ry="5" fill="black" />
  <rect width="8" height="150.93868074274107" x="11" y="24.530659628629465" rx="5" ry="5" fill="black" />
  <rect width="8" height="145.74480305992188" x="21" y="27.12759847003906" rx="5" ry="5" fill="black" />
  <rect width="8" height="145.28812552316816" x="31" y="27.35593723841592" rx="5" ry="5" fill="black" />
  <rect width="8" height="147.29997632742888" x="41" y="26.35001183628556" rx="5" ry="5" fill="black" />
  <rect width="8" height="151.4552016021889" x="51" y="24.272399198905546" rx="5" ry="5" fill="black" />
  <rect width="8" height="152.38005343856875" x="61" y="23.809973280715624" rx="5" ry="5" fill="black" />
  <rect width="8" height="147.83375256843266" x="71" y="26.08312371578367" rx="5" ry="5" fill="black" />
  <rect width="8" height="150.05847072430132" x="81" y="24.970764637849342" rx="5" ry="5" fill="black" />
  <rect width="8" height="151.07849724439825" x="91" y="24.460751377800875" rx="5" ry="5" fill="black" />
  <rect width="8" height="149.29597717677444" x="101" y="25.35201141161278" rx="5" ry="5" fill="black" />
  <rect width="8" height="157.44071331320654" x="111" y="21.279643343396728" rx="5" ry="5" fill="black" />
  <rect width="8" height="190.8297584487981" x="121" y="4.585120775600956" rx="5" ry="5" fill="black" />
  <rect width="8" height="149.70571218217296" x="131" y="25.14714390891352" rx="5" ry="5" fill="black" />
  <rect width="8" height="160.47300635616736" x="141" y="19.76349682191632" rx="5" ry="5" fill="black" />
  <rect width="8" height="159.4689472165292" x="151" y="20.265526391735406" rx="5" ry="5" fill="black" />
  <rect width="8" height="149.09942915133186" x="161" y="25.45028542433407" rx="5" ry="5" fill="black" />
  <rect width="8" height="157.96212027348187" x="171" y="21.018939863259064" rx="5" ry="5" fill="black" />
  <rect width="8" height="100.32349005735006" x="181" y="49.83825497132497" rx="5" ry="5" fill="black" />
  <rect width="8" height="31.712899011886396" x="191" y="84.1435504940568" rx="5" ry="5" fill="black" />
  <rect width="8" height="25.041796562439988" x="201" y="87.47910171878" rx="5" ry="5" fill="black" />
  <rect width="8" height="37.00507453291662" x="211" y="81.49746273354168" rx="5" ry="5" fill="black" />
  <rect width="8" height="28.068798764936854" x="221" y="85.96560061753158" rx="5" ry="5" fill="black" />
  <rect width="8" height="31.271033455887853" x="231" y="84.36448327205608" rx="5" ry="5" fill="black" />
  <rect width="8" height="53.94756693362059" x="241" y="73.02621653318971" rx="5" ry="5" fill="black" />
  <rect width="8" height="43.79319441083622" x="251" y="78.10340279458188" rx="5" ry="5" fill="black" />
  <rect width="8" height="35.33287715245939" x="261" y="82.3335614237703" rx="5" ry="5" fill="black" />
  <rect width="8" height="45.09836868173549" x="271" y="77.45081565913226" rx="5" ry="5" fill="black" />
  <rect width="8" height="49.01550161047118" x="281" y="75.49224919476441" rx="5" ry="5" fill="black" />
  <rect width="8" height="74.00255736567793" x="291" y="62.998721317161035" rx="5" ry="5" fill="black" />
  <rect width="8" height="75.62120764608662" x="301" y="62.18939617695669" rx="5" ry="5" fill="black" />
  <rect width="8" height="68.18472863429055" x="311" y="65.90763568285473" rx="5" ry="5" fill="black" />
  <rect width="8" height="78.78785555579978" x="321" y="60.60607222210011" rx="5" ry="5" fill="black" />
  <rect width="8" height="92.61300881698504" x="331" y="53.69349559150748" rx="5" ry="5" fill="black" />
  <rect width="8" height="85.46977327697375" x="341" y="57.26511336151312" rx="5" ry="5" fill="black" />
  <rect width="8" height="107.31765337595974" x="351" y="46.34117331202013" rx="5" ry="5" fill="black" />
  <rect width="8" height="91.09015762571843" x="361" y="54.45492118714078" rx="5" ry="5" fill="black" />
  <rect width="8" height="87.17539075782199" x="371" y="56.41230462108901" rx="5" ry="5" fill="black" />
  <rect width="8" height="95.0425060088634" x="381" y="52.4787469955683" rx="5" ry="5" fill="black" />
  <rect width="8" height="105.99920734160678" x="391" y="47.00039632919661" rx="5" ry="5" fill="black" />
  <rect width="8" height="52.89925051180022" x="401" y="73.55037474409988" rx="5" ry="5" fill="black" />
  <rect width="8" height="166.4583722473467" x="411" y="16.770813876326656" rx="5" ry="5" fill="black" />
  <rect width="8" height="159.3385583038584" x="421" y="20.330720848070797" rx="5" ry="5" fill="black" />
  <rect width="8" height="170.8770256603501" x="431" y="14.561487169824943" rx="5" ry="5" fill="black" />
  <rect width="8" height="194.8816287278251" x="441" y="2.5591856360874488" rx="5" ry="5" fill="black" />
  <rect width="8" height="157.02532091294256" x="451" y="21.48733954352872" rx="5" ry="5" fill="black" />
  <rect width="8" height="183.1043913653301" x="461" y="8.447804317334956" rx="5" ry="5" fill="black" />
  <rect width="8" height="170.1874317720511" x="471" y="14.90628411397445" rx="5" ry="5" fill="black" />
  <rect width="8" height="161.21443119144146" x="481" y="19.39278440427927" rx="5" ry="5" fill="black" />
  <rect width="8" height="192.04563655885985" x="491" y="3.977181720570073" rx="5" ry="5" fill="black" />
  <rect width="8" height="190.44093690811252" x="501" y="4.77953154594374" rx="5" ry="5" fill="black" />
  <rect width="8" height="168.00076553081286" x="511" y="15.999617234593572" rx="5" ry="5" fill="black" />
  <rect width="8" height="172.9225595772039" x="521" y="13.538720211398044" rx="5" ry="5" fill="black" />
  <rect width="8" height="157.76901065430815" x="531" y="21.115494672845927" rx="5" ry="5" fill="black" />
  <rect width="8" height="178.62339646130104" x="541" y="10.68830176934948" rx="5" ry="5" fill="black" />
  <rect width="8" height="178.16147367496666" x="551" y="10.919263162516671" rx="5" ry="5" fill="black" />
  <rect width="8" height="158.3505472076826" x="561" y="20.824726396158695" rx="5" ry="5" fill="black" />
  <rect width="8" height="188.7685919923579" x="571" y="5.615704003821051" rx="5" ry="5" fill="black" />
  <rect width="8" height="200" x="581" y="0" rx="5" ry="5" fill="black" />
  <rect width="8" height="31.905916944724826" x="591" y="84.04704152763759" rx="5" ry="5" fill="black" />
  <rect width="8" height="33.692915439245986" x="601" y="83.15354228037701" rx="5" ry="5" fill="black" />
  <rect width="8" height="13.320616215541445" x="611" y="93.33969189222928" rx="5" ry="5" fill="black" />
  <rect width="8" height="8" x="621" y="96" rx="5" ry="5" fill="black" />
  <rect width="8" height="8" x="631" y="96" rx="5" ry="5" fill="black" />
  </g>
  </svg>