<svg 
  baseProfile="tiny"
  preserveAspectRatio="keep"
  version="1.2"
  viewBox="-0.000000 0.000000 625.000000 120.000000"
  height="100%" width="100%"
  xmlns="http://www.w3.org/2000/svg"
  xmlns:ev="http://www.w3.org/2001/xml-events"
  xmlns:xlink="http://www.w3.org/1999/xlink"
>
  <g style="transform-origin: center center;">
    <path d="M 0.000000 60.000000 C 8.333333333333334 43.65775139272782, 16.666666666666664 19.106052298336422, 25 10.973254178183467
 C 33.333333333333336 2.8404560580305134, 41.666666666666664 11.212711955519845, 50 11.203211279082275
 C 58.333333333333336 11.193710602644705, 66.66666666666667 10.975534427671507, 75 10.916250119558043
 C 83.33333333333333 10.85696581144458, 91.66666666666667 11.666880450327838, 100 10.847505430401498
 C 108.33333333333333 10.028130410475157, 116.66666666666667 6.780342403470481, 125 6
 C 133.33333333333334 5.219657596529519, 141.66666666666666 4.8012568412876275, 150 6.165451009578611
 C 158.33333333333334 7.529645177869594, 166.66666666666666 7.212740178009003, 175 14.185165009745901
 C 183.33333333333334 21.1575898414828, 191.66666666666666 42.364194168290986, 200 48
 C 208.33333333333334 53.635805831709014, 216.66666666666666 48.49951834830966, 225 48
 C 233.33333333333334 47.50048165169034, 241.66666666666666 45.665945619178686, 250 45.002889910142066
 C 258.3333333333333 44.33983420110545, 266.6666666666667 46.57198249066487, 275 44.02166574578026
 C 283.3333333333333 41.47134900089565, 291.6666666666667 32.60579650083902, 300 29.700989440834412
 C 308.3333333333333 26.796182380829805, 316.6666666666667 27.78290703346193, 325 26.59282338575261
 C 333.3333333333333 25.402739738043287, 341.6666666666667 23.359632358546833, 350 22.56048755457848
 C 358.3333333333333 21.761342750610126, 366.6666666666667 22.323800676294493, 375 21.79795456194249
 C 383.3333333333333 21.272108447590487, 391.6666666666667 22.038403295456877, 400 19.40541086846646
 C 408.3333333333333 16.772418441476045, 416.6666666666667 8.23423514474441, 425 6
 C 433.3333333333333 3.76576485525559, 441.6666666666667 6, 450 6
 C 458.3333333333333 6, 466.6666666666667 6, 475 6
 C 483.3333333333333 6, 491.6666666666667 6, 500 6
 C 508.3333333333333 6, 516.6666666666666 6, 525 6
 C 533.3333333333334 6, 541.6666666666666 -3, 550 6
 C 558.3333333333334 15, 566.6666666666666 53, 575 60
 C 583.3333333333334 67, 591.6666666666666 48, 600 48
 C 608.3333333333334 48, 616.6666666666666 56, 625 60
" fill="black" stroke="none" stroke-width="0" />
  </g>
  <g style="transform-origin: center center;">
    <path d="M 0.000000 60.000000 C 8.333333333333334 43.65775139272782, 16.666666666666664 19.106052298336422, 25 10.973254178183467
 C 33.333333333333336 2.8404560580305134, 41.666666666666664 11.212711955519845, 50 11.203211279082275
 C 58.333333333333336 11.193710602644705, 66.66666666666667 10.975534427671507, 75 10.916250119558043
 C 83.33333333333333 10.85696581144458, 91.66666666666667 11.666880450327838, 100 10.847505430401498
 C 108.33333333333333 10.028130410475157, 116.66666666666667 6.780342403470481, 125 6
 C 133.33333333333334 5.219657596529519, 141.66666666666666 4.8012568412876275, 150 6.165451009578611
 C 158.33333333333334 7.529645177869594, 166.66666666666666 7.212740178009003, 175 14.185165009745901
 C 183.33333333333334 21.1575898414828, 191.66666666666666 42.364194168290986, 200 48
 C 208.33333333333334 53.635805831709014, 216.66666666666666 48.49951834830966, 225 48
 C 233.33333333333334 47.50048165169034, 241.66666666666666 45.665945619178686, 250 45.002889910142066
 C 258.3333333333333 44.33983420110545, 266.6666666666667 46.57198249066487, 275 44.02166574578026
 C 283.3333333333333 41.47134900089565, 291.6666666666667 32.60579650083902, 300 29.700989440834412
 C 308.3333333333333 26.796182380829805, 316.6666666666667 27.78290703346193, 325 26.59282338575261
 C 333.3333333333333 25.402739738043287, 341.6666666666667 23.359632358546833, 350 22.56048755457848
 C 358.3333333333333 21.761342750610126, 366.6666666666667 22.323800676294493, 375 21.79795456194249
 C 383.3333333333333 21.272108447590487, 391.6666666666667 22.038403295456877, 400 19.40541086846646
 C 408.3333333333333 16.772418441476045, 416.6666666666667 8.23423514474441, 425 6
 C 433.3333333333333 3.76576485525559, 441.6666666666667 6, 450 6
 C 458.3333333333333 6, 466.6666666666667 6, 475 6
 C 483.3333333333333 6, 491.6666666666667 6, 500 6
 C 508.3333333333333 6, 516.6666666666666 6, 525 6
 C 533.3333333333334 6, 541.6666666666666 -3, 550 6
 C 558.3333333333334 15, 566.6666666666666 53, 575 60
 C 583.3333333333334 67, 591.6666666666666 48, 600 48
 C 608.3333333333334 48, 616.6666666666666 56, 625 60
" fill="black" stroke="none" stroke-width="0" />
    <path d="M 0.000000 60.000000 C 8.333333333333334 76.34224860727218, 16.666666666666664 100.89394770166358, 25 109.02674582181653
 C 33.333333333333336 117.15954394196949, 41.666666666666664 108.78728804448016, 50 108.79678872091773
 C 58.333333333333336 108.8062893973553, 66.66666666666667 109.0244655723285, 75 109.08374988044196
 C 83.33333333333333 109.14303418855542, 91.66666666666667 108.33311954967216, 100 109.1524945695985
 C 108.33333333333333 109.97186958952484, 116.66666666666667 113.21965759652952, 125 114
 C 133.33333333333334 114.78034240347048, 141.66666666666666 115.19874315871236, 150 113.83454899042138
 C 158.33333333333334 112.4703548221304, 166.66666666666666 112.787259821991, 175 105.8148349902541
 C 183.33333333333334 98.8424101585172, 191.66666666666666 77.63580583170902, 200 72
 C 208.33333333333334 66.36419416829098, 216.66666666666666 71.50048165169035, 225 72
 C 233.33333333333334 72.49951834830965, 241.66666666666666 74.3340543808213, 250 74.99711008985793
 C 258.3333333333333 75.66016579889455, 266.6666666666667 73.42801750933512, 275 75.97833425421973
 C 283.3333333333333 78.52865099910434, 291.6666666666667 87.39420349916098, 300 90.2990105591656
 C 308.3333333333333 93.20381761917021, 316.6666666666667 92.21709296653808, 325 93.40717661424739
 C 333.3333333333333 94.5972602619567, 341.6666666666667 96.64036764145317, 350 97.43951244542153
 C 358.3333333333333 98.23865724938989, 366.6666666666667 97.6761993237055, 375 98.20204543805751
 C 383.3333333333333 98.72789155240952, 391.6666666666667 97.96159670454313, 400 100.59458913153354
 C 408.3333333333333 103.22758155852395, 416.6666666666667 111.76576485525558, 425 114
 C 433.3333333333333 116.23423514474442, 441.6666666666667 114, 450 114
 C 458.3333333333333 114, 466.6666666666667 114, 475 114
 C 483.3333333333333 114, 491.6666666666667 114, 500 114
 C 508.3333333333333 114, 516.6666666666666 114, 525 114
 C 533.3333333333334 114, 541.6666666666666 123, 550 114
 C 558.3333333333334 105, 566.6666666666666 67, 575 60
 C 583.3333333333334 53, 591.6666666666666 72, 600 72
 C 608.3333333333334 72, 616.6666666666666 64, 625 60
" fill="black" stroke="none" stroke-width="0" />
  </g>
</svg>