<svg 
  baseProfile="tiny"
  preserveAspectRatio="keep"
  version="1.2"
  viewBox="0 0 1200.000000 80.000000"
  height="100%" width="100%"
  xmlns="http://www.w3.org/2000/svg"
  xmlns:ev="http://www.w3.org/2001/xml-events"
  xmlns:xlink="http://www.w3.org/1999/xlink"
>
  <g>
    <rect width="4" height="60.46376299194763" x="1" y="9.768118504026184" rx="3" ry="3" fill="black" />
    <rect width="4" height="57.75374166994116" x="7" y="11.123129165029422" rx="3" ry="3" fill="black" />
    <rect width="4" height="56.03783944204808" x="13" y="11.98108027897596" rx="3" ry="3" fill="black" />
    <rect width="4" height="56.76701960991118" x="19" y="11.61649019504441" rx="3" ry="3" fill="black" />
    <rect width="4" height="57.06542439331449" x="25" y="11.467287803342757" rx="3" ry="3" fill="black" />
    <rect width="4" height="57.124385061023084" x="31" y="11.437807469488458" rx="3" ry="3" fill="black" />
    <rect width="4" height="56.61270393704926" x="37" y="11.69364803147537" rx="3" ry="3" fill="black" />
    <rect width="4" height="55.814468872675576" x="43" y="12.092765563662212" rx="3" ry="3" fill="black" />
    <rect width="4" height="56.889597013601474" x="49" y="11.555201493199263" rx="3" ry="3" fill="black" />
    <rect width="4" height="57.13944648991166" x="55" y="11.430276755044169" rx="3" ry="3" fill="black" />
    <rect width="4" height="55.93341836979563" x="61" y="12.033290815102184" rx="3" ry="3" fill="black" />
    <rect width="4" height="53.66380167653014" x="67" y="13.16809916173493" rx="3" ry="3" fill="black" />
    <rect width="4" height="58.23818817045019" x="73" y="10.880905914774907" rx="3" ry="3" fill="black" />
    <rect width="4" height="57.651285964285094" x="79" y="11.174357017857453" rx="3" ry="3" fill="black" />
    <rect width="4" height="52.54650293275316" x="85" y="13.726748533623422" rx="3" ry="3" fill="black" />
    <rect width="4" height="56.76264251116157" x="91" y="11.618678744419213" rx="3" ry="3" fill="black" />
    <rect width="4" height="56.52947725303552" x="97" y="11.735261373482238" rx="3" ry="3" fill="black" />
    <rect width="4" height="56.97973478203352" x="103" y="11.510132608983241" rx="3" ry="3" fill="black" />
    <rect width="4" height="58.34719123943344" x="109" y="10.826404380283279" rx="3" ry="3" fill="black" />
    <rect width="4" height="57.111263604428316" x="115" y="11.444368197785842" rx="3" ry="3" fill="black" />
    <rect width="4" height="57.12333389586445" x="121" y="11.438333052067776" rx="3" ry="3" fill="black" />
    <rect width="4" height="57.19093204525286" x="127" y="11.404533977373571" rx="3" ry="3" fill="black" />
    <rect width="4" height="57.59605179881417" x="133" y="11.201974100592913" rx="3" ry="3" fill="black" />
    <rect width="4" height="55.218814346639526" x="139" y="12.390592826680237" rx="3" ry="3" fill="black" />
    <rect width="4" height="56.72184769928528" x="145" y="11.639076150357361" rx="3" ry="3" fill="black" />
    <rect width="4" height="58.52272241655123" x="151" y="10.738638791724384" rx="3" ry="3" fill="black" />
    <rect width="4" height="57.99001330346161" x="157" y="11.004993348269196" rx="3" ry="3" fill="black" />
    <rect width="4" height="56.65701515347972" x="163" y="11.67149242326014" rx="3" ry="3" fill="black" />
    <rect width="4" height="56.36095781674023" x="169" y="11.819521091629884" rx="3" ry="3" fill="black" />
    <rect width="4" height="56.62950776884689" x="175" y="11.685246115576554" rx="3" ry="3" fill="black" />
    <rect width="4" height="56.81904401941526" x="181" y="11.59047799029237" rx="3" ry="3" fill="black" />
    <rect width="4" height="58.82922731642121" x="187" y="10.585386341789395" rx="3" ry="3" fill="black" />
    <rect width="4" height="56.96826506817236" x="193" y="11.515867465913821" rx="3" ry="3" fill="black" />
    <rect width="4" height="57.01581356191383" x="199" y="11.492093219043085" rx="3" ry="3" fill="black" />
    <rect width="4" height="56.67103859923011" x="205" y="11.664480700384946" rx="3" ry="3" fill="black" />
    <rect width="4" height="60.40812921987406" x="211" y="9.795935390062969" rx="3" ry="3" fill="black" />
    <rect width="4" height="59.87440103883976" x="217" y="10.062799480580122" rx="3" ry="3" fill="black" />
    <rect width="4" height="66.39120718392549" x="223" y="6.804396408037256" rx="3" ry="3" fill="black" />
    <rect width="4" height="68.0970639276779" x="229" y="5.951468036161053" rx="3" ry="3" fill="black" />
    <rect width="4" height="66.69439779304435" x="235" y="6.652801103477827" rx="3" ry="3" fill="black" />
    <rect width="4" height="58.06223804407125" x="241" y="10.968880977964375" rx="3" ry="3" fill="black" />
    <rect width="4" height="65.15826757555588" x="247" y="7.420866212222059" rx="3" ry="3" fill="black" />
    <rect width="4" height="55.63606937244188" x="253" y="12.18196531377906" rx="3" ry="3" fill="black" />
    <rect width="4" height="60.07144069449196" x="259" y="9.96427965275402" rx="3" ry="3" fill="black" />
    <rect width="4" height="63.568875030661246" x="265" y="8.215562484669377" rx="3" ry="3" fill="black" />
    <rect width="4" height="63.42589307830913" x="271" y="8.287053460845435" rx="3" ry="3" fill="black" />
    <rect width="4" height="64.46241404420579" x="277" y="7.768792977897107" rx="3" ry="3" fill="black" />
    <rect width="4" height="69.8015866229975" x="283" y="5.099206688501248" rx="3" ry="3" fill="black" />
    <rect width="4" height="60.48051665748893" x="289" y="9.759741671255536" rx="3" ry="3" fill="black" />
    <rect width="4" height="61.16570838946028" x="295" y="9.417145805269861" rx="3" ry="3" fill="black" />
    <rect width="4" height="58.13929869165249" x="301" y="10.930350654173754" rx="3" ry="3" fill="black" />
    <rect width="4" height="56.72309188391728" x="307" y="11.638454058041361" rx="3" ry="3" fill="black" />
    <rect width="4" height="62.06894469080112" x="313" y="8.965527654599441" rx="3" ry="3" fill="black" />
    <rect width="4" height="61.77968627472034" x="319" y="9.11015686263983" rx="3" ry="3" fill="black" />
    <rect width="4" height="58.89554346770091" x="325" y="10.552228266149545" rx="3" ry="3" fill="black" />
    <rect width="4" height="51.35731103545366" x="331" y="14.321344482273169" rx="3" ry="3" fill="black" />
    <rect width="4" height="43.17186800324694" x="337" y="18.41406599837653" rx="3" ry="3" fill="black" />
    <rect width="4" height="35.843906703093886" x="343" y="22.078046648453057" rx="3" ry="3" fill="black" />
    <rect width="4" height="16" x="349" y="32" rx="3" ry="3" fill="black" />
    <rect width="4" height="16" x="355" y="32" rx="3" ry="3" fill="black" />
    <rect width="4" height="16" x="361" y="32" rx="3" ry="3" fill="black" />
    <rect width="4" height="16" x="367" y="32" rx="3" ry="3" fill="black" />
    <rect width="4" height="16" x="373" y="32" rx="3" ry="3" fill="black" />
    <rect width="4" height="16" x="379" y="32" rx="3" ry="3" fill="black" />
    <rect width="4" height="16" x="385" y="32" rx="3" ry="3" fill="black" />
    <rect width="4" height="16" x="391" y="32" rx="3" ry="3" fill="black" />
    <rect width="4" height="16" x="397" y="32" rx="3" ry="3" fill="black" />
    <rect width="4" height="23.214176214152033" x="403" y="28.392911892923983" rx="3" ry="3" fill="black" />
    <rect width="4" height="20.68042634540326" x="409" y="29.65978682729837" rx="3" ry="3" fill="black" />
    <rect width="4" height="16" x="415" y="32" rx="3" ry="3" fill="black" />
    <rect width="4" height="16" x="421" y="32" rx="3" ry="3" fill="black" />
    <rect width="4" height="16" x="427" y="32" rx="3" ry="3" fill="black" />
    <rect width="4" height="16" x="433" y="32" rx="3" ry="3" fill="black" />
    <rect width="4" height="16" x="439" y="32" rx="3" ry="3" fill="black" />
    <rect width="4" height="16" x="445" y="32" rx="3" ry="3" fill="black" />
    <rect width="4" height="18.380390579698382" x="451" y="30.809804710150807" rx="3" ry="3" fill="black" />
    <rect width="4" height="24.984326390434425" x="457" y="27.507836804782787" rx="3" ry="3" fill="black" />
    <rect width="4" height="21.640251108253263" x="463" y="29.179874445873367" rx="3" ry="3" fill="black" />
    <rect width="4" height="18.211164862902162" x="469" y="30.894417568548917" rx="3" ry="3" fill="black" />
    <rect width="4" height="18.83416188161449" x="475" y="30.582919059192754" rx="3" ry="3" fill="black" />
    <rect width="4" height="16.803950951809085" x="481" y="31.598024524095457" rx="3" ry="3" fill="black" />
    <rect width="4" height="16.821071335772174" x="487" y="31.589464332113913" rx="3" ry="3" fill="black" />
    <rect width="4" height="16.202934071298035" x="493" y="31.898532964350984" rx="3" ry="3" fill="black" />
    <rect width="4" height="16.7504363485094" x="499" y="31.624781825745302" rx="3" ry="3" fill="black" />
    <rect width="4" height="22.11611732224496" x="505" y="28.94194133887752" rx="3" ry="3" fill="black" />
    <rect width="4" height="20.838627375443977" x="511" y="29.58068631227801" rx="3" ry="3" fill="black" />
    <rect width="4" height="18.60677463198929" x="517" y="30.696612684005355" rx="3" ry="3" fill="black" />
    <rect width="4" height="20.65844082228445" x="523" y="29.670779588857776" rx="3" ry="3" fill="black" />
    <rect width="4" height="20.81551968730881" x="529" y="29.592240156345596" rx="3" ry="3" fill="black" />
    <rect width="4" height="19.445890790840675" x="535" y="30.27705460457966" rx="3" ry="3" fill="black" />
    <rect width="4" height="19.719680999299424" x="541" y="30.140159500350286" rx="3" ry="3" fill="black" />
    <rect width="4" height="22.94485008168293" x="547" y="28.527574959158535" rx="3" ry="3" fill="black" />
    <rect width="4" height="37.84438028936525" x="553" y="21.077809855317376" rx="3" ry="3" fill="black" />
    <rect width="4" height="34.37736876117194" x="559" y="22.81131561941403" rx="3" ry="3" fill="black" />
    <rect width="4" height="30.96448431519821" x="565" y="24.517757842400897" rx="3" ry="3" fill="black" />
    <rect width="4" height="33.05769915307761" x="571" y="23.471150423461197" rx="3" ry="3" fill="black" />
    <rect width="4" height="34.79954113681736" x="577" y="22.60022943159132" rx="3" ry="3" fill="black" />
    <rect width="4" height="47.208879323542035" x="583" y="16.395560338228982" rx="3" ry="3" fill="black" />
    <rect width="4" height="35.10589280893512" x="589" y="22.44705359553244" rx="3" ry="3" fill="black" />
    <rect width="4" height="35.492367611046866" x="595" y="22.253816194476567" rx="3" ry="3" fill="black" />
    <rect width="4" height="38.80025224331193" x="601" y="20.599873878344034" rx="3" ry="3" fill="black" />
    <rect width="4" height="35.0602668906915" x="607" y="22.46986655465425" rx="3" ry="3" fill="black" />
    <rect width="4" height="37.26004544205815" x="613" y="21.369977278970925" rx="3" ry="3" fill="black" />
    <rect width="4" height="42.41213192105633" x="619" y="18.793934039471836" rx="3" ry="3" fill="black" />
    <rect width="4" height="39.80716983901115" x="625" y="20.096415080494424" rx="3" ry="3" fill="black" />
    <rect width="4" height="40.545407547504624" x="631" y="19.727296226247688" rx="3" ry="3" fill="black" />
    <rect width="4" height="39.92524298132542" x="637" y="20.03737850933729" rx="3" ry="3" fill="black" />
    <rect width="4" height="40.10838317318073" x="643" y="19.945808413409637" rx="3" ry="3" fill="black" />
    <rect width="4" height="47.31370498030874" x="649" y="16.34314750984563" rx="3" ry="3" fill="black" />
    <rect width="4" height="45.4846314038194" x="655" y="17.2576842980903" rx="3" ry="3" fill="black" />
    <rect width="4" height="40.118042651558895" x="661" y="19.940978674220553" rx="3" ry="3" fill="black" />
    <rect width="4" height="47.206585191299276" x="667" y="16.396707404350362" rx="3" ry="3" fill="black" />
    <rect width="4" height="39.62916203198958" x="673" y="20.18541898400521" rx="3" ry="3" fill="black" />
    <rect width="4" height="39.29458321782153" x="679" y="20.352708391089234" rx="3" ry="3" fill="black" />
    <rect width="4" height="43.103486600794284" x="685" y="18.448256699602858" rx="3" ry="3" fill="black" />
    <rect width="4" height="44.23810567659639" x="691" y="17.880947161701805" rx="3" ry="3" fill="black" />
    <rect width="4" height="48.10326735007477" x="697" y="15.948366324962613" rx="3" ry="3" fill="black" />
    <rect width="4" height="43.748456669161826" x="703" y="18.125771665419087" rx="3" ry="3" fill="black" />
    <rect width="4" height="45.40790411682479" x="709" y="17.296047941587606" rx="3" ry="3" fill="black" />
    <rect width="4" height="51.07105016429459" x="715" y="14.464474917852705" rx="3" ry="3" fill="black" />
    <rect width="4" height="41.441696284126294" x="721" y="19.279151857936853" rx="3" ry="3" fill="black" />
    <rect width="4" height="45.113384386056026" x="727" y="17.443307806971987" rx="3" ry="3" fill="black" />
    <rect width="4" height="47.99888017069148" x="733" y="16.00055991465426" rx="3" ry="3" fill="black" />
    <rect width="4" height="44.91209282228117" x="739" y="17.543953588859416" rx="3" ry="3" fill="black" />
    <rect width="4" height="38.73688391053539" x="745" y="20.631558044732305" rx="3" ry="3" fill="black" />
    <rect width="4" height="25.363076191963" x="751" y="27.3184619040185" rx="3" ry="3" fill="black" />
    <rect width="4" height="23.51576443226715" x="757" y="28.242117783866426" rx="3" ry="3" fill="black" />
    <rect width="4" height="21.832444326550423" x="763" y="29.08377783672479" rx="3" ry="3" fill="black" />
    <rect width="4" height="21.074309138655725" x="769" y="29.46284543067214" rx="3" ry="3" fill="black" />
    <rect width="4" height="60.78312749688508" x="775" y="9.60843625155746" rx="3" ry="3" fill="black" />
    <rect width="4" height="66.2597733171533" x="781" y="6.870113341423348" rx="3" ry="3" fill="black" />
    <rect width="4" height="61.94557512798074" x="787" y="9.02721243600963" rx="3" ry="3" fill="black" />
    <rect width="4" height="60.78932265091788" x="793" y="9.60533867454106" rx="3" ry="3" fill="black" />
    <rect width="4" height="60.98313492121669" x="799" y="9.508432539391656" rx="3" ry="3" fill="black" />
    <rect width="4" height="57.357790345662195" x="805" y="11.321104827168902" rx="3" ry="3" fill="black" />
    <rect width="4" height="62.55868211365191" x="811" y="8.720658943174044" rx="3" ry="3" fill="black" />
    <rect width="4" height="67.16484101125873" x="817" y="6.417579494370635" rx="3" ry="3" fill="black" />
    <rect width="4" height="63.395753386811876" x="823" y="8.302123306594062" rx="3" ry="3" fill="black" />
    <rect width="4" height="70.7895826273966" x="829" y="4.605208686301701" rx="3" ry="3" fill="black" />
    <rect width="4" height="72.92333523652056" x="835" y="3.538332381739721" rx="3" ry="3" fill="black" />
    <rect width="4" height="66.17690858617506" x="841" y="6.91154570691247" rx="3" ry="3" fill="black" />
    <rect width="4" height="72.18646351756911" x="847" y="3.9067682412154454" rx="3" ry="3" fill="black" />
    <rect width="4" height="62.13560576977632" x="853" y="8.93219711511184" rx="3" ry="3" fill="black" />
    <rect width="4" height="62.82023715371145" x="859" y="8.589881423144273" rx="3" ry="3" fill="black" />
    <rect width="4" height="66.27336328651477" x="865" y="6.863318356742617" rx="3" ry="3" fill="black" />
    <rect width="4" height="71.51333435336367" x="871" y="4.243332823318163" rx="3" ry="3" fill="black" />
    <rect width="4" height="72.8139076910856" x="877" y="3.5930461544571983" rx="3" ry="3" fill="black" />
    <rect width="4" height="73.45659772074318" x="883" y="3.271701139628412" rx="3" ry="3" fill="black" />
    <rect width="4" height="68.53759839014783" x="889" y="5.7312008049260825" rx="3" ry="3" fill="black" />
    <rect width="4" height="75.7507698155481" x="895" y="2.1246150922259517" rx="3" ry="3" fill="black" />
    <rect width="4" height="63.928235354869585" x="901" y="8.035882322565207" rx="3" ry="3" fill="black" />
    <rect width="4" height="62.25802205001281" x="907" y="8.870988974993594" rx="3" ry="3" fill="black" />
    <rect width="4" height="68.53157538783515" x="913" y="5.734212306082426" rx="3" ry="3" fill="black" />
    <rect width="4" height="66.59679628249009" x="919" y="6.701601858754955" rx="3" ry="3" fill="black" />
    <rect width="4" height="70.3532867470238" x="925" y="4.823356626488099" rx="3" ry="3" fill="black" />
    <rect width="4" height="72.02926164566422" x="931" y="3.9853691771678896" rx="3" ry="3" fill="black" />
    <rect width="4" height="64.52139700672488" x="937" y="7.739301496637559" rx="3" ry="3" fill="black" />
    <rect width="4" height="70.0559248954323" x="943" y="4.972037552283851" rx="3" ry="3" fill="black" />
    <rect width="4" height="66.27774111618645" x="949" y="6.861129441906776" rx="3" ry="3" fill="black" />
    <rect width="4" height="62.235872690736436" x="955" y="8.882063654631782" rx="3" ry="3" fill="black" />
    <rect width="4" height="64.72853106966733" x="961" y="7.635734465166337" rx="3" ry="3" fill="black" />
    <rect width="4" height="67.7907273862549" x="967" y="6.10463630687255" rx="3" ry="3" fill="black" />
    <rect width="4" height="75.97337953176189" x="973" y="2.0133102341190536" rx="3" ry="3" fill="black" />
    <rect width="4" height="75.45282463590057" x="979" y="2.2735876820497154" rx="3" ry="3" fill="black" />
    <rect width="4" height="64.65934134738313" x="985" y="7.670329326308433" rx="3" ry="3" fill="black" />
    <rect width="4" height="65.55361509077926" x="991" y="7.22319245461037" rx="3" ry="3" fill="black" />
    <rect width="4" height="72.15912325720248" x="997" y="3.9204383713987596" rx="3" ry="3" fill="black" />
    <rect width="4" height="60.98051726938852" x="1003" y="9.50974136530574" rx="3" ry="3" fill="black" />
    <rect width="4" height="61.8699005837918" x="1009" y="9.065049708104102" rx="3" ry="3" fill="black" />
    <rect width="4" height="64.47985244636627" x="1015" y="7.760073776816867" rx="3" ry="3" fill="black" />
    <rect width="4" height="68.47385717577595" x="1021" y="5.763071412112026" rx="3" ry="3" fill="black" />
    <rect width="4" height="74.52636267312946" x="1027" y="2.7368186634352725" rx="3" ry="3" fill="black" />
    <rect width="4" height="74.02748996247026" x="1033" y="2.986255018764872" rx="3" ry="3" fill="black" />
    <rect width="4" height="71.8707285801794" x="1039" y="4.0646357099102985" rx="3" ry="3" fill="black" />
    <rect width="4" height="71.8473296691599" x="1045" y="4.076335165420048" rx="3" ry="3" fill="black" />
    <rect width="4" height="62.34508976188166" x="1051" y="8.82745511905917" rx="3" ry="3" fill="black" />
    <rect width="4" height="61.86776210541982" x="1057" y="9.06611894729009" rx="3" ry="3" fill="black" />
    <rect width="4" height="67.7481055136581" x="1063" y="6.125947243170948" rx="3" ry="3" fill="black" />
    <rect width="4" height="68.86009295533538" x="1069" y="5.5699535223323124" rx="3" ry="3" fill="black" />
    <rect width="4" height="68.17377125780753" x="1075" y="5.913114371096235" rx="3" ry="3" fill="black" />
    <rect width="4" height="80" x="1081" y="0" rx="3" ry="3" fill="black" />
    <rect width="4" height="60.189162248826435" x="1087" y="9.905418875586783" rx="3" ry="3" fill="black" />
    <rect width="4" height="71.9879608455122" x="1093" y="4.006019577243897" rx="3" ry="3" fill="black" />
    <rect width="4" height="44.77013730055434" x="1099" y="17.61493134972283" rx="3" ry="3" fill="black" />
    <rect width="4" height="16" x="1105" y="32" rx="3" ry="3" fill="black" />
    <rect width="4" height="16" x="1111" y="32" rx="3" ry="3" fill="black" />
    <rect width="4" height="16" x="1117" y="32" rx="3" ry="3" fill="black" />
    <rect width="4" height="16" x="1123" y="32" rx="3" ry="3" fill="black" />
    <rect width="4" height="16" x="1129" y="32" rx="3" ry="3" fill="black" />
    <rect width="4" height="16" x="1135" y="32" rx="3" ry="3" fill="black" />
    <rect width="4" height="16" x="1141" y="32" rx="3" ry="3" fill="black" />
    <rect width="4" height="16" x="1147" y="32" rx="3" ry="3" fill="black" />
    <rect width="4" height="16" x="1153" y="32" rx="3" ry="3" fill="black" />
    <rect width="4" height="16" x="1159" y="32" rx="3" ry="3" fill="black" />
    <rect width="4" height="16" x="1165" y="32" rx="3" ry="3" fill="black" />
    <rect width="4" height="16" x="1171" y="32" rx="3" ry="3" fill="black" />
    <rect width="4" height="16" x="1177" y="32" rx="3" ry="3" fill="black" />
    <rect width="4" height="16" x="1183" y="32" rx="3" ry="3" fill="black" />
    <rect width="4" height="16" x="1189" y="32" rx="3" ry="3" fill="black" />
    <rect width="4" height="16" x="1195" y="32" rx="3" ry="3" fill="black" />
  </g>
</svg>