<svg 
  baseProfile="tiny"
  preserveAspectRatio="keep"
  version="1.2"
  viewBox="-0.000000 0.000000 625.000000 100.000000"
  height="100%" width="100%"
  xmlns="http://www.w3.org/2000/svg"
  xmlns:ev="http://www.w3.org/2001/xml-events"
  xmlns:xlink="http://www.w3.org/1999/xlink"
>
  <g style="transform-origin: center center;">
    <path d="M 0.000000 100.000000 C 8.333333333333334 72.7629189878797, 16.666666666666664 31.843420497227356, 25 18.288756963639102
 C 33.333333333333336 4.734093430050846, 41.666666666666664 18.687853259199745, 50 18.67201879847046
 C 58.333333333333336 18.656184337741177, 66.66666666666667 18.29255737945251, 75 18.193750199263405
 C 83.33333333333333 18.0949430190743, 91.66666666666667 19.444800750546396, 100 18.07917571733583
 C 108.33333333333333 16.713550684125263, 116.66666666666667 11.300570672450803, 125 10
 C 133.33333333333334 8.699429327549197, 141.66666666666666 8.00209473547937, 150 10.275751682631011
 C 158.33333333333334 12.549408629782652, 166.66666666666666 12.021233630015013, 175 23.641941682909845
 C 183.33333333333334 35.26264973580468, 191.66666666666666 70.60699028048498, 200 80
 C 208.33333333333334 89.39300971951502, 216.66666666666666 80.83253058051609, 225 80
 C 233.33333333333334 79.16746941948391, 241.66666666666666 76.10990936529782, 250 75.00481651690345
 C 258.3333333333333 73.89972366850907, 266.6666666666667 77.61997081777477, 275 73.36944290963376
 C 283.3333333333333 69.11891500149275, 291.6666666666667 54.34299416806503, 300 49.501649068057354
 C 308.3333333333333 44.660303968049675, 316.6666666666667 46.30484505576989, 325 44.32137230958768
 C 333.3333333333333 42.33789956340547, 341.6666666666667 38.93272059757805, 350 37.600812590964125
 C 358.3333333333333 36.2689045843502, 366.6666666666667 37.206334460490815, 375 36.32992426990415
 C 383.3333333333333 35.45351407931748, 391.6666666666667 36.730672159094794, 400 32.3423514474441
 C 408.3333333333333 27.95403073579341, 416.6666666666667 13.723725241240684, 425 10
 C 433.3333333333333 6.276274758759316, 441.6666666666667 10, 450 10
 C 458.3333333333333 10, 466.6666666666667 10, 475 10
 C 483.3333333333333 10, 491.6666666666667 10, 500 10
 C 508.3333333333333 10, 516.6666666666666 10, 525 10
 C 533.3333333333334 10, 541.6666666666666 -5, 550 10
 C 558.3333333333334 25, 566.6666666666666 88.33333333333333, 575 100
 C 583.3333333333334 111.66666666666667, 591.6666666666666 80, 600 80
 C 608.3333333333334 80, 616.6666666666666 93.33333333333333, 625 100
" fill="black" stroke="none" stroke-width="0" />
  </g>
</svg>