<!-- <svg baseProfile="tiny" preserveAspectRatio="true" version="1.2" viewBox="0 0 630 50" height="100%" width="100%"
  xmlns="http://www.w3.org/2000/svg" xmlns:ev="http://www.w3.org/2001/xml-events"
  xmlns:xlink="http://www.w3.org/1999/xlink">
  <g>
    <path d="M 0 39.60217591931579 C 3.3333333333333335 39.50689114909554, 6.666666666666666 39.46104535268125, 10 39.31632160865503 C 13.333333333333334 39.17159786462881, 16.666666666666668 38.4139508501449, 20 38.4139508501449 C 23.333333333333332 38.4139508501449, 26.666666666666668 38.41854405662838, 30 38.4273535150851 C 33.333333333333336 38.436162973541826, 36.666666666666664 39.360357465951125, 40 39.36701771961438 C 43.333333333333336 39.37367797327764, 46.666666666666664 39.377115457872655, 50 39.377115457872655 C 53.333333333333336 39.377115457872655, 56.666666666666664 39.06866135714549, 60 39.01267771186267 C 63.333333333333336 38.95669406657986, 66.66666666666667 38.9035584732281, 70 38.9035584732281 C 73.33333333333333 38.9035584732281, 76.66666666666667 39.30561276833936, 80 39.30561276833936 C 83.33333333333333 39.30561276833936, 86.66666666666667 39.09110381650725, 90 39.09110381650725 C 93.33333333333333 39.09110381650725, 96.66666666666667 39.12336730978405, 100 39.18178725329747 C 103.33333333333333 39.24020719681089, 106.66666666666667 40.781310891822464, 110 41.78421917658666 C 113.33333333333333 42.787127461350856, 116.66666666666667 45.34956801685061, 120 45.34956801685061 C 123.33333333333333 45.34956801685061, 126.66666666666667 41.23457682999749, 130 41.23457682999749 C 133.33333333333334 41.23457682999749, 136.66666666666666 43.44742375675387, 140 43.689118271062526 C 143.33333333333334 43.93081278537118, 146.66666666666666 44.114488224558876, 150 44.114488224558876 C 153.33333333333334 44.114488224558876, 156.66666666666666 40.84263402722659, 160 40.24680862207211 C 163.33333333333334 39.65098321691763, 166.66666666666666 39.81165850699387, 170 39.08448157046889 C 173.33333333333334 38.357304633943905, 176.66666666666666 26.379389763802962, 180 21.367922584594957 C 183.33333333333334 16.356455405386953, 186.66666666666666 8.508970082062431, 190 8.310343078609241 C 193.33333333333334 8.111716075156052, 196.66666666666666 8.005445594112004, 200 8.005445594112004 C 203.33333333333334 8.005445594112004, 206.66666666666666 12.852036061671729, 210 12.852036061671729 C 213.33333333333334 12.852036061671729, 216.66666666666666 9.270437343274848, 220 9.140683513478256 C 223.33333333333334 9.010929683681665, 226.66666666666666 8.935281053277526, 230 8.935281053277526 C 233.33333333333334 8.935281053277526, 236.66666666666666 14.862919539561522, 240 14.862919539561522 C 243.33333333333334 14.862919539561522, 246.66666666666666 12.937230158882175, 250 12.509471113700203 C 253.33333333333334 12.08171206851823, 256.6666666666667 11.627326832218191, 260 11.627326832218191 C 263.3333333333333 11.627326832218191, 266.6666666666667 14.070106444852154, 270 14.070106444852154 C 273.3333333333333 14.070106444852154, 276.6666666666667 13.935547933683138, 280 13.935547933683138 C 283.3333333333333 13.935547933683138, 286.6666666666667 20.32452523762869, 290 21.20210199866534 C 293.3333333333333 22.07967875970199, 296.6666666666667 22.02883469031491, 300 22.809687672576622 C 303.3333333333333 23.590540654838335,306.6666666666667 27.12530844380034, 310 27.12530844380034 C 313.3333333333333 27.12530844380034, 316.6666666666667 25.48440505322207, 320 25.48440505322207 C 323.3333333333333 25.48440505322207, 326.6666666666667 27.67911648943045, 330 28.22275825163137 C 333.3333333333333 28.76640001383229, 336.6666666666667 29.030789182366, 340 29.384043656843794 C 343.3333333333333 29.737298131321587, 346.6666666666667 30.358608589935564, 350 30.358608589935564 C 353.3333333333333 30.358608589935564, 356.6666666666667 28.094071045287855, 360 28.094071045287855 C 363.3333333333333 28.094071045287855, 366.6666666666667 31.472743173142685, 370 31.614505125018926 C 373.3333333333333 31.756267076895167, 376.6666666666667 31.840817904608322, 380 31.840817904608322 C 383.3333333333333 31.840817904608322, 386.6666666666667 31.1764445619944, 390 30.194462081076058 C 393.3333333333333 29.212479600157714, 396.6666666666667 16.207788520413622, 400 16.207788520413622 C 403.3333333333333 16.207788520413622, 406.6666666666667 35.063350234480716, 410 37.35884771410132 C 413.3333333333333 39.65434519372193, 416.6666666666667 40.50615085014535, 420 41.471625769273956 C 423.3333333333333 42.43710068840256, 426.6666666666667 42.726299067704296, 430 43.70695295332238 C 433.3333333333333 44.68760683894046, 436.6666666666667 48.008829201982564, 440 48.008829201982564 C 443.3333333333333 48.008829201982564, 446.6666666666667 45.403679498207254, 450 45.403679498207254 C 453.3333333333333 45.403679498207254, 456.6666666666667 47.16426023016244, 460 47.914618167395325 C 463.3333333333333 48.66497610462821, 466.6666666666667 49.95457091993442, 470 49.95457091993442 C 473.3333333333333 49.95457091993442, 476.6666666666667 44.42854985925418, 480 44.42854985925418 C 483.3333333333333 44.42854985925418, 486.6666666666667 48.13335834403511, 490 48.13335834403511 C 493.3333333333333 48.13335834403511, 496.6666666666667 44.95756791705697, 500 44.95756791705697 C 503.3333333333333 44.95756791705697, 506.6666666666667 45.32350033017579, 510 45.743038928902784 C 513.3333333333334 46.16257752762978, 516.6666666666666 48.90833897696784, 520 48.90833897696784 C 523.3333333333334 48.90833897696784, 526.6666666666666 45.1937821212864, 530 45.1937821212864 C 533.3333333333334 45.1937821212864, 536.6666666666666 46.38567124583119, 540 47.16026353735035 C 543.3333333333334 47.934855828869516, 546.6666666666666 50, 550 50 C 553.3333333333334 50, 556.6666666666666 43.75896363622689, 560 43.75896363622689 C 563.3333333333334 43.75896363622689, 566.6666666666666 49.853004691877864, 570 49.853004691877864 C 573.3333333333334 49.853004691877864, 576.6666666666666 44.016017341392086, 580 38.62992667516493 C 583.3333333333334 33.24383600893778, 586.6666666666666 9.8073981086307, 590 9.789454068732452 C 593.3333333333334 9.771510028834204, 596.6666666666666 9.780345248203433, 600 9.762512865363608 C 603.3333333333334 9.744680482523782, 606.6666666666666 7.5536418900849815, 610 6.021443915275799 C 613.3333333333334 4.489245940466616, 616.6666666666666 0.10294364943415105, 620 0.06202172266127896 C 623.3333333333334 0.021099795888406866, 626.6666666666666 0.02067390755375965, 630 0 Z" fill="rgba(0 0 0 / 0.5)" stroke="black" stroke-width="2px" />
  </g>
</svg> -->
<!-- <svg
  baseProfile="tiny"
  preserveAspectRatio="true"
  version="1.2"
  viewBox="0 0 650 50"
  height="100%" width="100%"
  xmlns="http://www.w3.org/2000/svg"
  xmlns:ev="http://www.w3.org/2001/xml-events"
  xmlns:xlink="http://www.w3.org/1999/xlink"
>



  <g>
  <path d="M 0 0 C 3.3333333333333335 13.200725306438597, 6.666666666666666 39.60217591931579, 10 39.60217591931579 C 13.333333333333334 39.60217591931579, 16.666666666666668 39.46104535268125, 20 39.31632160865503 C 23.333333333333332 39.17159786462881, 26.666666666666668 38.4139508501449, 30 38.4139508501449 C 33.333333333333336 38.4139508501449, 36.666666666666664 38.41854405662838, 40 38.4273535150851 C 43.333333333333336 38.436162973541826, 46.666666666666664 39.360357465951125, 50 39.36701771961438 C 53.333333333333336 39.37367797327764, 56.666666666666664 39.377115457872655, 60 39.377115457872655 C 63.333333333333336 39.377115457872655, 66.66666666666667 39.06866135714549, 70 39.01267771186267 C 73.33333333333333 38.95669406657986, 76.66666666666667 38.9035584732281, 80 38.9035584732281 C 83.33333333333333 38.9035584732281, 86.66666666666667 39.30561276833936, 90 39.30561276833936 C 93.33333333333333 39.30561276833936, 96.66666666666667 39.09110381650725, 100 39.09110381650725 C 103.33333333333333 39.0
9110381650725, 106.66666666666667 39.12336730978405, 110 39.18178725329747 C 113.33333333333333 39.24020719681089, 116.66666666666667 40.781310891822464, 120 41.78421917658666 C 123.33333333333333 42.787127461350856, 126.66666666666667 45.34956801685061, 130 45.34956801685061 C 133.33333333333334 45.34956801685061, 136.66666666666666 41.23457682999749, 140 41.23457682999749 C 143.33333333333334 41.23457682999749, 146.66666666666666 43.44742375675387, 150 43.689118271062526 C 153.33333333333334 43.93081278537118, 156.66666666666666 44.114488224558876, 160 44.114488224558876 C 163.33333333333334 44.114488224558876, 166.66666666666666 40.84263402722659, 170 40.24680862207211 C 173.33333333333334 39.65098321691763, 176.66666666666666 39.81165850699387, 180 39.08448157046889 C 183.33333333333334 38.357304633943905, 186.66666666666666 26.379389763802962, 190 21.367922584594957 C 193.33333333333334 16.356455405386953, 196.66666666666666 8.508970082062431, 200 8.310343078609241 C 203.33333333333334 8.111716075156052,
 206.66666666666666 8.005445594112004, 210 8.005445594112004 C 213.33333333333334 8.005445594112004, 216.66666666666666 12.852036061671729, 220 12.852036061671729 C 223.33333333333334 12.852036061671729, 226.66666666666666 9.270437343274848, 230 9.140683513478256 C 233.33333333333334 9.010929683681665, 236.66666666666666 8.935281053277526, 240 8.935281053277526 C 243.33333333333334 8.935281053277526, 246.66666666666666 14.862919539561522, 250 14.862919539561522 C 253.33333333333334 14.862919539561522, 256.6666666666667 12.937230158882175, 260 12.509471113700203 C 263.3333333333333 12.08171206851823, 266.6666666666667 11.627326832218191, 270 11.627326832218191 C 273.3333333333333 11.627326832218191, 276.6666666666667 14.070106444852154, 280 14.070106444852154 C 283.3333333333333 14.070106444852154, 286.6666666666667 13.935547933683138, 290 13.935547933683138 C 293.3333333333333 13.935547933683138, 296.6666666666667 20.32452523762869, 300 21.20210199866534 C 303.3333333333333 22.07967875970199, 306.666666666666
7 22.02883469031491, 310 22.809687672576622 C 313.3333333333333 23.590540654838335, 316.6666666666667 27.12530844380034, 320 27.12530844380034 C 323.3333333333333 27.12530844380034, 326.6666666666667 25.48440505322207, 330 25.48440505322207 C 333.3333333333333 25.48440505322207, 336.6666666666667 27.67911648943045, 340 28.22275825163137 C 343.3333333333333 28.76640001383229, 346.6666666666667 29.030789182366, 350 29.384043656843794 C 353.3333333333333 29.737298131321587, 356.6666666666667 30.358608589935564, 360 30.358608589935564 C 363.3333333333333 30.358608589935564, 366.6666666666667 28.094071045287855, 370 28.094071045287855 C 373.3333333333333 28.094071045287855, 376.6666666666667 31.472743173142685, 380 31.614505125018926 C 383.3333333333333 31.756267076895167, 386.6666666666667 31.840817904608322, 390 31.840817904608322 C 393.3333333333333 31.840817904608322, 396.6666666666667 31.1764445619944, 400 30.194462081076058 C 403.3333333333333 29.212479600157714, 406.6666666666667 16.207788520413622, 410 16.
207788520413622 C 413.3333333333333 16.207788520413622, 416.6666666666667 35.063350234480716, 420 37.35884771410132 C 423.3333333333333 39.65434519372193, 426.6666666666667 40.50615085014535, 430 41.471625769273956 C 433.3333333333333 42.43710068840256, 436.6666666666667 42.726299067704296, 440 43.70695295332238 C 443.3333333333333 44.68760683894046, 446.6666666666667 48.008829201982564, 450 48.008829201982564 C 453.3333333333333 48.008829201982564, 456.6666666666667 45.403679498207254, 460 45.403679498207254 C 463.3333333333333 45.403679498207254, 466.6666666666667 47.16426023016244, 470 47.914618167395325 C 473.3333333333333 48.66497610462821, 476.6666666666667 49.95457091993442, 480 49.95457091993442 C 483.3333333333333 49.95457091993442, 486.6666666666667 44.42854985925418, 490 44.42854985925418 C 493.3333333333333 44.42854985925418, 496.6666666666667 48.13335834403511, 500 48.13335834403511 C 503.3333333333333 48.13335834403511, 506.6666666666667 44.95756791705697, 510 44.95756791705697 C 513.33333333333
34 44.95756791705697, 516.6666666666666 45.32350033017579, 520 45.743038928902784 C 523.3333333333334 46.16257752762978, 526.6666666666666 48.90833897696784, 530 48.90833897696784 C 533.3333333333334 48.90833897696784, 536.6666666666666 45.1937821212864, 540 45.1937821212864 C 543.3333333333334 45.1937821212864, 546.6666666666666 46.38567124583119, 550 47.16026353735035 C 553.3333333333334 47.934855828869516, 556.6666666666666 50, 560 50 C 563.3333333333334 50, 566.6666666666666 43.75896363622689, 570 43.75896363622689 C 573.3333333333334 43.75896363622689, 576.6666666666666 49.853004691877864, 580 49.853004691877864 C 583.3333333333334 49.853004691877864, 586.6666666666666 44.016017341392086, 590 38.62992667516493 C 593.3333333333334 33.24383600893778, 596.6666666666666 9.8073981086307, 600 9.789454068732452 C 603.3333333333334 9.771510028834204, 606.6666666666666 9.780345248203433, 610 9.762512865363608 C 613.3333333333334 9.744680482523782, 616.6666666666666 7.5536418900849815, 620 6.021443915275799 C 623.
3333333333334 4.489245940466616, 626.6666666666666 0.10294364943415105, 630 0.06202172266127896 C 633.3333333333334 0.021099795888406866, 636.6666666666666 0, 640 0 C 643.3333333333334 0, 646.6666666666666 0, 650 0 Z" fill="rgba(0 0 0 / 0.5)" stroke="black" stroke-width="2px" />
  </g>

</svg> -->
<svg
  baseProfile="tiny"
  preserveAspectRatio="true"
  version="1.2"
  viewBox="0 0 650 50"
  height="100%" width="100%"
  xmlns="http://www.w3.org/2000/svg"
  xmlns:ev="http://www.w3.org/2001/xml-events"
  xmlns:xlink="http://www.w3.org/1999/xlink"
>



  <g>
  <path d="M 0 0 C 3.3333333333333335 13.200725306438597, 6.666666666666666 39.60217591931579, 10 39.60217591931579
 C 13.333333333333334 39.60217591931579, 16.666666666666668 39.46104535268125, 20 39.31632160865503
 C 23.333333333333332 39.17159786462881, 26.666666666666668 38.4139508501449, 30 38.4139508501449
 C 33.333333333333336 38.4139508501449, 36.666666666666664 38.41854405662838, 40 38.4273535150851
 C 43.333333333333336 38.436162973541826, 46.666666666666664 39.360357465951125, 50 39.36701771961438
 C 53.333333333333336 39.37367797327764, 56.666666666666664 39.377115457872655, 60 39.377115457872655
 C 63.333333333333336 39.377115457872655, 66.66666666666667 39.06866135714549, 70 39.01267771186267
 C 73.33333333333333 38.95669406657986, 76.66666666666667 38.9035584732281, 80 38.9035584732281
 C 83.33333333333333 38.9035584732281, 86.66666666666667 39.30561276833936, 90 39.30561276833936
 C 93.33333333333333 39.30561276833936, 96.66666666666667 39.09110381650725, 100 39.09110381650725
 C 103.33333333333333 39.09110381650725, 106.66666666666667 39.12336730978405, 110 39.18178725329747
 C 113.33333333333333 39.24020719681089, 116.66666666666667 40.781310891822464, 120 41.78421917658666
 C 123.33333333333333 42.787127461350856, 126.66666666666667 45.34956801685061, 130 45.34956801685061
 C 133.33333333333334 45.34956801685061, 136.66666666666666 41.23457682999749, 140 41.23457682999749
 C 143.33333333333334 41.23457682999749, 146.66666666666666 43.44742375675387, 150 43.689118271062526
 C 153.33333333333334 43.93081278537118, 156.66666666666666 44.114488224558876, 160 44.114488224558876
 C 163.33333333333334 44.114488224558876, 166.66666666666666 40.84263402722659, 170 40.24680862207211
 C 173.33333333333334 39.65098321691763, 176.66666666666666 39.81165850699387, 180 39.08448157046889
 C 183.33333333333334 38.357304633943905, 186.66666666666666 26.379389763802962, 190 21.367922584594957
 C 193.33333333333334 16.356455405386953, 196.66666666666666 8.508970082062431, 200 8.310343078609241
 C 203.33333333333334 8.111716075156052, 206.66666666666666 8.005445594112004, 210 8.005445594112004
 C 213.33333333333334 8.005445594112004, 216.66666666666666 12.852036061671729, 220 12.852036061671729
 C 223.33333333333334 12.852036061671729, 226.66666666666666 9.270437343274848, 230 9.140683513478256
 C 233.33333333333334 9.010929683681665, 236.66666666666666 8.935281053277526, 240 8.935281053277526
 C 243.33333333333334 8.935281053277526, 246.66666666666666 14.862919539561522, 250 14.862919539561522
 C 253.33333333333334 14.862919539561522, 256.6666666666667 12.937230158882175, 260 12.509471113700203
 C 263.3333333333333 12.08171206851823, 266.6666666666667 11.627326832218191, 270 11.627326832218191
 C 273.3333333333333 11.627326832218191, 276.6666666666667 14.070106444852154, 280 14.070106444852154
 C 283.3333333333333 14.070106444852154, 286.6666666666667 13.935547933683138, 290 13.935547933683138
 C 293.3333333333333 13.935547933683138, 296.6666666666667 20.32452523762869, 300 21.20210199866534
 C 303.3333333333333 22.07967875970199, 306.6666666666667 22.02883469031491, 310 22.809687672576622
 C 313.3333333333333 23.590540654838335, 316.6666666666667 27.12530844380034, 320 27.12530844380034
 C 323.3333333333333 27.12530844380034, 326.6666666666667 25.48440505322207, 330 25.48440505322207
 C 333.3333333333333 25.48440505322207, 336.6666666666667 27.67911648943045, 340 28.22275825163137
 C 343.3333333333333 28.76640001383229, 346.6666666666667 29.030789182366, 350 29.384043656843794
 C 353.3333333333333 29.737298131321587, 356.6666666666667 30.358608589935564, 360 30.358608589935564
 C 363.3333333333333 30.358608589935564, 366.6666666666667 28.094071045287855, 370 28.094071045287855
 C 373.3333333333333 28.094071045287855, 376.6666666666667 31.472743173142685, 380 31.614505125018926
 C 383.3333333333333 31.756267076895167, 386.6666666666667 31.840817904608322, 390 31.840817904608322
 C 393.3333333333333 31.840817904608322, 396.6666666666667 31.1764445619944, 400 30.194462081076058
 C 403.3333333333333 29.212479600157714, 406.6666666666667 16.207788520413622, 410 16.207788520413622
 C 413.3333333333333 16.207788520413622, 416.6666666666667 35.063350234480716, 420 37.35884771410132
 C 423.3333333333333 39.65434519372193, 426.6666666666667 40.50615085014535, 430 41.471625769273956
 C 433.3333333333333 42.43710068840256, 436.6666666666667 42.726299067704296, 440 43.70695295332238
 C 443.3333333333333 44.68760683894046, 446.6666666666667 48.008829201982564, 450 48.008829201982564
 C 453.3333333333333 48.008829201982564, 456.6666666666667 45.403679498207254, 460 45.403679498207254
 C 463.3333333333333 45.403679498207254, 466.6666666666667 47.16426023016244, 470 47.914618167395325
 C 473.3333333333333 48.66497610462821, 476.6666666666667 49.95457091993442, 480 49.95457091993442
 C 483.3333333333333 49.95457091993442, 486.6666666666667 44.42854985925418, 490 44.42854985925418
 C 493.3333333333333 44.42854985925418, 496.6666666666667 48.13335834403511, 500 48.13335834403511
 C 503.3333333333333 48.13335834403511, 506.6666666666667 44.95756791705697, 510 44.95756791705697
 C 513.3333333333334 44.95756791705697, 516.6666666666666 45.32350033017579, 520 45.743038928902784
 C 523.3333333333334 46.16257752762978, 526.6666666666666 48.90833897696784, 530 48.90833897696784
 C 533.3333333333334 48.90833897696784, 536.6666666666666 45.1937821212864, 540 45.1937821212864
 C 543.3333333333334 45.1937821212864, 546.6666666666666 46.38567124583119, 550 47.16026353735035
 C 553.3333333333334 47.934855828869516, 556.6666666666666 50, 560 50
 C 563.3333333333334 50, 566.6666666666666 43.75896363622689, 570 43.75896363622689
 C 573.3333333333334 43.75896363622689, 576.6666666666666 49.853004691877864, 580 49.853004691877864
 C 583.3333333333334 49.853004691877864, 586.6666666666666 44.016017341392086, 590 38.62992667516493
 C 593.3333333333334 33.24383600893778, 596.6666666666666 9.8073981086307, 600 9.789454068732452
 C 603.3333333333334 9.771510028834204, 606.6666666666666 9.780345248203433, 610 9.762512865363608
 C 613.3333333333334 9.744680482523782, 616.6666666666666 7.5536418900849815, 620 6.021443915275799
 C 623.3333333333334 4.489245940466616, 626.6666666666666 0.10294364943415105, 630 0.06202172266127896
 C 633.3333333333334 0.021099795888406866, 636.6666666666666 0, 640 0
 C 643.3333333333334 0, 646.6666666666666 0, 650 0
 Z
" fill="rgba(0 0 0 / 0.5)" stroke="black" stroke-width="2px" />
  </g>

</svg>