<svg 
  baseProfile="tiny"
  preserveAspectRatio="keep"
  version="1.2"
  viewBox="-5.000000 5.000000 1295.000000 410.000000"
  height="100%" width="100%"
  xmlns="http://www.w3.org/2000/svg"
  xmlns:ev="http://www.w3.org/2001/xml-events"
  xmlns:xlink="http://www.w3.org/1999/xlink"
>
  <g style="transform-origin: center center;">
    <path d="M 0.000000 200.000000 C 3.3333333333333335 186.10201780942074, 6.666666666666666 158.3060534282622, 10 158.3060534282622
 C 13.333333333333334 158.3060534282622, 16.666666666666668 164.90600393888542, 20 164.90600393888542
 C 23.333333333333332 164.90600393888542, 26.666666666666668 164.30902746014564, 30 163.85919474763972
 C 33.333333333333336 163.4093620351338, 36.666666666666664 161.96075553238552, 40 161.96075553238552
 C 43.333333333333336 161.96075553238552, 46.666666666666664 162.92355851544255, 50 162.92355851544255
 C 53.333333333333336 162.92355851544255, 56.666666666666664 162.9040783055294, 60 162.87885204648157
 C 63.333333333333336 162.85362578743374, 66.66666666666667 162.63250784271526, 70 162.63250784271526
 C 73.33333333333333 162.63250784271526, 76.66666666666667 163.24637615749302, 80 163.6235337713529
 C 83.33333333333333 164.00069138521278, 86.66666666666667 164.94183448517634, 90 164.94183448517634
 C 93.33333333333333 164.94183448517634, 96.66666666666667 162.96822706647887, 100 162.6239146581716
 C 103.33333333333333 162.27960224986433, 106.66666666666667 161.959376630617, 110 161.959376630617
 C 113.33333333333333 161.959376630617, 116.66666666666667 161.97413987612052, 120 161.98992350610956
 C 123.33333333333333 162.0057071360986, 126.66666666666667 162.031367054507, 130 162.0951724596127
 C 133.33333333333334 162.15897786471842, 136.66666666666666 163.1509675470635, 140 163.1509675470635
 C 143.33333333333334 163.1509675470635, 146.66666666666666 162.81564356872772, 150 162.81564356872772
 C 153.33333333333334 162.81564356872772, 156.66666666666666 162.8482673606923, 160 162.89581408622755
 C 163.33333333333334 162.9433608117628, 166.66666666666666 163.54185827913093, 170 163.54185827913093
 C 173.33333333333334 163.54185827913093, 176.66666666666666 161.09569072510993, 180 161.09569072510993
 C 183.33333333333334 161.09569072510993, 186.66666666666666 163.49463656424777, 190 163.65622368044956
 C 193.33333333333334 163.81781079665134, 196.66666666666666 163.92394712095273, 200 163.92394712095273
 C 203.33333333333334 163.92394712095273, 206.66666666666666 163.0141956322903, 210 162.96614751918565
 C 213.33333333333334 162.918099406081, 216.66666666666666 162.93955618941547, 220 162.88821079407884
 C 223.33333333333334 162.83686539874222, 226.66666666666666 156.35399766285025, 230 156.35399766285025
 C 233.33333333333334 156.35399766285025, 236.66666666666666 162.25501250030055, 240 162.25501250030055
 C 243.33333333333334 162.25501250030055, 246.66666666666666 151.12402676950117, 250 151.12402676950117
 C 253.33333333333334 151.12402676950117, 256.6666666666667 160.4466402893522, 260 160.4466402893522
 C 263.3333333333333 160.4466402893522, 266.6666666666667 154.54616356416383, 270 154.54616356416383
 C 273.3333333333333 154.54616356416383, 276.6666666666667 163.5106647336355, 280 163.5106647336355
 C 283.3333333333333 163.5106647336355, 286.6666666666667 162.46750442697973, 290 161.68826135498037
 C 293.3333333333333 160.909018282981, 296.6666666666667 159.8463086759846, 300 158.42886358632262
 C 303.3333333333333 157.01141849666064, 306.6666666666667 152.31357787803486, 310 152.31357787803486
 C 313.3333333333333 152.31357787803486, 316.6666666666667 159.34006504520852, 320 160.50911622694588
 C 323.3333333333333 161.67816740868324, 326.6666666666667 162.1209905877556, 330 162.7400369670686
 C 333.3333333333333 163.35908334638157, 336.6666666666667 163.9131901967479, 340 164.3306717788962
 C 343.3333333333333 164.7481533610445, 346.6666666666667 165.36351941432656, 350 165.36351941432656
 C 353.3333333333333 165.36351941432656, 356.6666666666667 164.29540413477804, 360 164.29540413477804
 C 363.3333333333333 164.29540413477804, 366.6666666666667 164.9600300734873, 370 166.0318540490185
 C 373.3333333333333 167.1036780245497, 376.6666666666667 187.32731440862355, 380 187.72144523256912
 C 383.3333333333333 188.1155760565147, 386.6666666666667 188.3292073252852, 390 188.3292073252852
 C 393.3333333333333 188.3292073252852, 396.6666666666667 187.45139985479773, 400 187.45139985479773
 C 403.3333333333333 187.45139985479773, 406.6666666666667 188.36489443024888, 410 188.4402728158815
 C 413.3333333333333 188.51565120151415, 416.6666666666667 188.567937561178, 420 188.567937561178
 C 423.3333333333333 188.567937561178, 426.6666666666667 188.55363979283874, 430 188.52534433992088
 C 433.3333333333333 188.49704888700302, 436.6666666666667 176.47676346607435, 440 176.47676346607435
 C 443.3333333333333 176.47676346607435, 446.6666666666667 189.636646633908, 450 189.636646633908
 C 453.3333333333333 189.636646633908, 456.6666666666667 187.00544634079057, 460 186.7610768602398
 C 463.3333333333333 186.51670737968902, 466.6666666666667 186.34097095989006, 470 186.34097095989006
 C 473.3333333333333 186.34097095989006, 476.6666666666667 187.6696956302201, 480 187.6696956302201
 C 483.3333333333333 187.6696956302201, 486.6666666666667 180.0843501229021, 490 179.79868127367115
 C 493.3333333333333 179.5130124244402, 496.6666666666667 179.34550688363066, 500 179.34550688363066
 C 503.3333333333333 179.34550688363066, 506.6666666666667 181.13589688293155, 510 181.8744748973757
 C 513.3333333333334 182.61305291181986, 516.6666666666666 183.29063160006612, 520 183.84601687566848
 C 523.3333333333334 184.40140215127084, 526.6666666666666 185.28870455296766, 530 185.28870455296766
 C 533.3333333333334 185.28870455296766, 536.6666666666666 184.69178017573668, 540 184.0304519037074
 C 543.3333333333334 183.3691236316781, 546.6666666666666 179.3426432028459, 550 179.3426432028459
 C 553.3333333333334 179.3426432028459, 556.6666666666666 183.4605565053098, 560 183.4605565053098
 C 563.3333333333334 183.4605565053098, 566.6666666666666 180.152955548817, 570 180.152955548817
 C 573.3333333333334 180.152955548817, 576.6666666666666 185.17789653638286, 580 185.17789653638286
 C 583.3333333333334 185.17789653638286, 586.6666666666666 184.00773751305053, 590 182.606765828358
 C 593.3333333333334 181.20579414366546, 596.6666666666666 171.1027621975012, 600 171.1027621975012
 C 603.3333333333334 171.1027621975012, 606.6666666666666 179.45146978940622, 610 179.45146978940622
 C 613.3333333333334 179.45146978940622, 616.6666666666666 158.69617075938197, 620 158.69617075938197
 C 623.3333333333334 158.69617075938197, 626.6666666666666 159.07330386763002, 630 159.63689622436095
 C 633.3333333333334 160.2004885810919, 636.6666666666666 167.9786639291296, 640 167.9786639291296
 C 643.3333333333334 167.9786639291296, 646.6666666666666 167.96404390325574, 650 167.95320791964085
 C 653.3333333333334 167.94237193602595, 656.6666666666666 167.9082438008823, 660 167.9082438008823
 C 663.3333333333334 167.9082438008823, 666.6666666666666 170.50929707909083, 670 170.50929707909083
 C 673.3333333333334 170.50929707909083, 676.6666666666666 165.4920745426148, 680 164.20205712827348
 C 683.3333333333334 162.91203971393216, 686.6666666666666 162.55678241967775, 690 161.4106396596968
 C 693.3333333333334 160.26449689971588, 696.6666666666666 156.93476810202972, 700 156.93476810202972
 C 703.3333333333334 156.93476810202972, 706.6666666666666 162.50610415590668, 710 162.6951082608996
 C 713.3333333333334 162.8841123658925, 716.6666666666666 162.8029255381495, 720 162.99329000309976
 C 723.3333333333334 163.18365446805, 726.6666666666666 169.55107741887045, 730 169.73207195720602
 C 733.3333333333334 169.91306649554159, 736.6666666666666 170.0149607795132, 740 170.0149607795132
 C 743.3333333333334 170.0149607795132, 746.6666666666666 151.45811153921957, 750 151.45811153921957
 C 753.3333333333334 151.45811153921957, 756.6666666666666 153.52791742871523, 760 153.52791742871523
 C 763.3333333333334 153.52791742871523, 766.6666666666666 153.4509664402203, 770 153.4509664402203
 C 773.3333333333334 153.4509664402203, 776.6666666666666 166.06278732156628, 780 166.06278732156628
 C 783.3333333333334 166.06278732156628, 786.6666666666666 163.36278795159933, 790 163.36278795159933
 C 793.3333333333334 163.36278795159933, 796.6666666666666 164.2714948990707, 800 165.4898223693308
 C 803.3333333333334 166.7081498395909, 806.6666666666666 177.9783735074239, 810 178.46670360654358
 C 813.3333333333334 178.95503370566325, 816.6666666666666 178.90981344292808, 820 179.24301876701946
 C 823.3333333333334 179.57622409111084, 826.6666666666666 180.64626813258457, 830 180.64626813258457
 C 833.3333333333334 180.64626813258457, 836.6666666666666 158.27324116376124, 840 158.27324116376124
 C 843.3333333333334 158.27324116376124, 846.6666666666666 159.27752541693792, 850 159.27752541693792
 C 853.3333333333334 159.27752541693792, 856.6666666666666 155.6084767631486, 860 155.6084767631486
 C 863.3333333333334 155.6084767631486, 866.6666666666666 156.3110519044862, 870 156.3110519044862
 C 873.3333333333334 156.3110519044862, 876.6666666666666 154.1585742735082, 880 154.1585742735082
 C 883.3333333333334 154.1585742735082, 886.6666666666666 155.56047469090208, 890 155.56047469090208
 C 893.3333333333334 155.56047469090208, 896.6666666666666 139.76600139651129, 900 139.76600139651129
 C 903.3333333333334 139.76600139651129, 906.6666666666666 143.90635747914956, 910 145.8056629914663
 C 913.3333333333334 147.70496850378305, 916.6666666666666 151.19843758662802, 920 151.19843758662802
 C 923.3333333333334 151.19843758662802, 926.6666666666666 147.48732993101203, 930 147.48732993101203
 C 933.3333333333334 147.48732993101203, 936.6666666666666 151.47610337790098, 940 151.47610337790098
 C 943.3333333333334 151.47610337790098, 946.6666666666666 140.4892905904022, 950 139.2299036023386
 C 953.3333333333334 137.970516614275, 956.6666666666666 136.99626543323416, 960 136.99626543323416
 C 963.3333333333334 136.99626543323416, 966.6666666666666 149.6472720869261, 970 150.59479931507124
 C 973.3333333333334 151.54232654321638, 976.6666666666666 151.58408276421775, 980 152.1819789099072
 C 983.3333333333334 152.77987505559665, 986.6666666666666 154.24395181795896, 990 154.24395181795896
 C 993.3333333333334 154.24395181795896, 996.6666666666666 151.68501743995353, 1000 151.40340120451015
 C 1003.3333333333334 151.12178496906677, 1006.6666666666666 150.90718321323868, 1010 150.90718321323868
 C 1013.3333333333334 150.90718321323868, 1016.6666666666666 152.12922868460012, 1020 152.8238256846205
 C 1023.3333333333334 153.51842268464085, 1026.6666666666667 154.675291622053, 1030 155.10670431295736
 C 1033.3333333333333 155.53811700386171, 1036.6666666666667 156.00982860171658, 1040 156.00982860171658
 C 1043.3333333333333 156.00982860171658, 1046.6666666666667 143.36511009745328, 1050 143.36511009745328
 C 1053.3333333333333 143.36511009745328, 1056.6666666666667 148.9207635696662, 1060 149.50204850275847
 C 1063.3333333333333 150.08333343585073, 1066.6666666666667 150.0561318529596, 1070 150.51837396527307
 C 1073.3333333333333 150.98061607758655, 1076.6666666666667 151.93749121202018, 1080 152.70030868607736
 C 1083.3333333333333 153.46312616013455, 1086.6666666666667 155.10621253580067, 1090 155.10621253580067
 C 1093.3333333333333 155.10621253580067, 1096.6666666666667 154.72021408068588, 1100 154.72021408068588
 C 1103.3333333333333 154.72021408068588, 1106.6666666666667 155.58668820590094, 1110 155.58668820590094
 C 1113.3333333333333 155.58668820590094, 1116.6666666666667 147.41580066862088, 1120 147.41580066862088
 C 1123.3333333333333 147.41580066862088, 1126.6666666666667 159.26223842135363, 1130 159.26223842135363
 C 1133.3333333333333 159.26223842135363, 1136.6666666666667 155.32377085969105, 1140 154.83968188787486
 C 1143.3333333333333 154.35559291605867, 1146.6666666666667 154.50261015105076, 1150 153.97090518081984
 C 1153.3333333333333 153.43920021058892, 1156.6666666666667 144.2418035247439, 1160 144.2418035247439
 C 1163.3333333333333 144.2418035247439, 1166.6666666666667 150.88966160865226, 1170 155.82449152385703
 C 1173.3333333333333 160.7593214390618, 1176.6666666666667 171.80030323686708, 1180 176.33377493337025
 C 1183.3333333333333 180.86724662987342, 1186.6666666666667 186.21919703823312, 1190 186.50713637324748
 C 1193.3333333333333 186.79507570826183, 1196.6666666666667 186.9581950238999, 1200 186.9581950238999
 C 1203.3333333333333 186.9581950238999, 1206.6666666666667 186.15633302612696, 1210 186.15633302612696
 C 1213.3333333333333 186.15633302612696, 1216.6666666666667 189.34748430988816, 1220 189.34748430988816
 C 1223.3333333333333 189.34748430988816, 1226.6666666666667 188.68705680474105, 1230 188.68705680474105
 C 1233.3333333333333 188.68705680474105, 1236.6666666666667 198.5736035758444, 1240 199.09124617172313
 C 1243.3333333333333 199.60888876760185, 1246.6666666666667 199.90001207391356, 1250 199.93033089743798
 C 1253.3333333333333 199.9606497209624, 1256.6666666666667 199.97243928480623, 1260 199.97841529826098
 C 1263.3333333333333 199.98439131171574, 1266.6666666666667 199.98787316954292, 1270 199.98943332856544
 C 1273.3333333333333 199.99099348758796, 1276.6666666666667 199.9909808131207, 1280 199.99240468576855
 C 1283.3333333333333 199.9938285584164, 1286.6666666666667 199.99746822858953, 1290 200
" fill="#0c4a6e" stroke="#0ea5e9" stroke-width="5" />
  </g>
  <g style="transform-origin: center center;">
    <path d="M 0.000000 200.000000 C 3.3333333333333335 186.10201780942074, 6.666666666666666 158.3060534282622, 10 158.3060534282622
 C 13.333333333333334 158.3060534282622, 16.666666666666668 164.90600393888542, 20 164.90600393888542
 C 23.333333333333332 164.90600393888542, 26.666666666666668 164.30902746014564, 30 163.85919474763972
 C 33.333333333333336 163.4093620351338, 36.666666666666664 161.96075553238552, 40 161.96075553238552
 C 43.333333333333336 161.96075553238552, 46.666666666666664 162.92355851544255, 50 162.92355851544255
 C 53.333333333333336 162.92355851544255, 56.666666666666664 162.9040783055294, 60 162.87885204648157
 C 63.333333333333336 162.85362578743374, 66.66666666666667 162.63250784271526, 70 162.63250784271526
 C 73.33333333333333 162.63250784271526, 76.66666666666667 163.24637615749302, 80 163.6235337713529
 C 83.33333333333333 164.00069138521278, 86.66666666666667 164.94183448517634, 90 164.94183448517634
 C 93.33333333333333 164.94183448517634, 96.66666666666667 162.96822706647887, 100 162.6239146581716
 C 103.33333333333333 162.27960224986433, 106.66666666666667 161.959376630617, 110 161.959376630617
 C 113.33333333333333 161.959376630617, 116.66666666666667 161.97413987612052, 120 161.98992350610956
 C 123.33333333333333 162.0057071360986, 126.66666666666667 162.031367054507, 130 162.0951724596127
 C 133.33333333333334 162.15897786471842, 136.66666666666666 163.1509675470635, 140 163.1509675470635
 C 143.33333333333334 163.1509675470635, 146.66666666666666 162.81564356872772, 150 162.81564356872772
 C 153.33333333333334 162.81564356872772, 156.66666666666666 162.8482673606923, 160 162.89581408622755
 C 163.33333333333334 162.9433608117628, 166.66666666666666 163.54185827913093, 170 163.54185827913093
 C 173.33333333333334 163.54185827913093, 176.66666666666666 161.09569072510993, 180 161.09569072510993
 C 183.33333333333334 161.09569072510993, 186.66666666666666 163.49463656424777, 190 163.65622368044956
 C 193.33333333333334 163.81781079665134, 196.66666666666666 163.92394712095273, 200 163.92394712095273
 C 203.33333333333334 163.92394712095273, 206.66666666666666 163.0141956322903, 210 162.96614751918565
 C 213.33333333333334 162.918099406081, 216.66666666666666 162.93955618941547, 220 162.88821079407884
 C 223.33333333333334 162.83686539874222, 226.66666666666666 156.35399766285025, 230 156.35399766285025
 C 233.33333333333334 156.35399766285025, 236.66666666666666 162.25501250030055, 240 162.25501250030055
 C 243.33333333333334 162.25501250030055, 246.66666666666666 151.12402676950117, 250 151.12402676950117
 C 253.33333333333334 151.12402676950117, 256.6666666666667 160.4466402893522, 260 160.4466402893522
 C 263.3333333333333 160.4466402893522, 266.6666666666667 154.54616356416383, 270 154.54616356416383
 C 273.3333333333333 154.54616356416383, 276.6666666666667 163.5106647336355, 280 163.5106647336355
 C 283.3333333333333 163.5106647336355, 286.6666666666667 162.46750442697973, 290 161.68826135498037
 C 293.3333333333333 160.909018282981, 296.6666666666667 159.8463086759846, 300 158.42886358632262
 C 303.3333333333333 157.01141849666064, 306.6666666666667 152.31357787803486, 310 152.31357787803486
 C 313.3333333333333 152.31357787803486, 316.6666666666667 159.34006504520852, 320 160.50911622694588
 C 323.3333333333333 161.67816740868324, 326.6666666666667 162.1209905877556, 330 162.7400369670686
 C 333.3333333333333 163.35908334638157, 336.6666666666667 163.9131901967479, 340 164.3306717788962
 C 343.3333333333333 164.7481533610445, 346.6666666666667 165.36351941432656, 350 165.36351941432656
 C 353.3333333333333 165.36351941432656, 356.6666666666667 164.29540413477804, 360 164.29540413477804
 C 363.3333333333333 164.29540413477804, 366.6666666666667 164.9600300734873, 370 166.0318540490185
 C 373.3333333333333 167.1036780245497, 376.6666666666667 187.32731440862355, 380 187.72144523256912
 C 383.3333333333333 188.1155760565147, 386.6666666666667 188.3292073252852, 390 188.3292073252852
 C 393.3333333333333 188.3292073252852, 396.6666666666667 187.45139985479773, 400 187.45139985479773
 C 403.3333333333333 187.45139985479773, 406.6666666666667 188.36489443024888, 410 188.4402728158815
 C 413.3333333333333 188.51565120151415, 416.6666666666667 188.567937561178, 420 188.567937561178
 C 423.3333333333333 188.567937561178, 426.6666666666667 188.55363979283874, 430 188.52534433992088
 C 433.3333333333333 188.49704888700302, 436.6666666666667 176.47676346607435, 440 176.47676346607435
 C 443.3333333333333 176.47676346607435, 446.6666666666667 189.636646633908, 450 189.636646633908
 C 453.3333333333333 189.636646633908, 456.6666666666667 187.00544634079057, 460 186.7610768602398
 C 463.3333333333333 186.51670737968902, 466.6666666666667 186.34097095989006, 470 186.34097095989006
 C 473.3333333333333 186.34097095989006, 476.6666666666667 187.6696956302201, 480 187.6696956302201
 C 483.3333333333333 187.6696956302201, 486.6666666666667 180.0843501229021, 490 179.79868127367115
 C 493.3333333333333 179.5130124244402, 496.6666666666667 179.34550688363066, 500 179.34550688363066
 C 503.3333333333333 179.34550688363066, 506.6666666666667 181.13589688293155, 510 181.8744748973757
 C 513.3333333333334 182.61305291181986, 516.6666666666666 183.29063160006612, 520 183.84601687566848
 C 523.3333333333334 184.40140215127084, 526.6666666666666 185.28870455296766, 530 185.28870455296766
 C 533.3333333333334 185.28870455296766, 536.6666666666666 184.69178017573668, 540 184.0304519037074
 C 543.3333333333334 183.3691236316781, 546.6666666666666 179.3426432028459, 550 179.3426432028459
 C 553.3333333333334 179.3426432028459, 556.6666666666666 183.4605565053098, 560 183.4605565053098
 C 563.3333333333334 183.4605565053098, 566.6666666666666 180.152955548817, 570 180.152955548817
 C 573.3333333333334 180.152955548817, 576.6666666666666 185.17789653638286, 580 185.17789653638286
 C 583.3333333333334 185.17789653638286, 586.6666666666666 184.00773751305053, 590 182.606765828358
 C 593.3333333333334 181.20579414366546, 596.6666666666666 171.1027621975012, 600 171.1027621975012
 C 603.3333333333334 171.1027621975012, 606.6666666666666 179.45146978940622, 610 179.45146978940622
 C 613.3333333333334 179.45146978940622, 616.6666666666666 158.69617075938197, 620 158.69617075938197
 C 623.3333333333334 158.69617075938197, 626.6666666666666 159.07330386763002, 630 159.63689622436095
 C 633.3333333333334 160.2004885810919, 636.6666666666666 167.9786639291296, 640 167.9786639291296
 C 643.3333333333334 167.9786639291296, 646.6666666666666 167.96404390325574, 650 167.95320791964085
 C 653.3333333333334 167.94237193602595, 656.6666666666666 167.9082438008823, 660 167.9082438008823
 C 663.3333333333334 167.9082438008823, 666.6666666666666 170.50929707909083, 670 170.50929707909083
 C 673.3333333333334 170.50929707909083, 676.6666666666666 165.4920745426148, 680 164.20205712827348
 C 683.3333333333334 162.91203971393216, 686.6666666666666 162.55678241967775, 690 161.4106396596968
 C 693.3333333333334 160.26449689971588, 696.6666666666666 156.93476810202972, 700 156.93476810202972
 C 703.3333333333334 156.93476810202972, 706.6666666666666 162.50610415590668, 710 162.6951082608996
 C 713.3333333333334 162.8841123658925, 716.6666666666666 162.8029255381495, 720 162.99329000309976
 C 723.3333333333334 163.18365446805, 726.6666666666666 169.55107741887045, 730 169.73207195720602
 C 733.3333333333334 169.91306649554159, 736.6666666666666 170.0149607795132, 740 170.0149607795132
 C 743.3333333333334 170.0149607795132, 746.6666666666666 151.45811153921957, 750 151.45811153921957
 C 753.3333333333334 151.45811153921957, 756.6666666666666 153.52791742871523, 760 153.52791742871523
 C 763.3333333333334 153.52791742871523, 766.6666666666666 153.4509664402203, 770 153.4509664402203
 C 773.3333333333334 153.4509664402203, 776.6666666666666 166.06278732156628, 780 166.06278732156628
 C 783.3333333333334 166.06278732156628, 786.6666666666666 163.36278795159933, 790 163.36278795159933
 C 793.3333333333334 163.36278795159933, 796.6666666666666 164.2714948990707, 800 165.4898223693308
 C 803.3333333333334 166.7081498395909, 806.6666666666666 177.9783735074239, 810 178.46670360654358
 C 813.3333333333334 178.95503370566325, 816.6666666666666 178.90981344292808, 820 179.24301876701946
 C 823.3333333333334 179.57622409111084, 826.6666666666666 180.64626813258457, 830 180.64626813258457
 C 833.3333333333334 180.64626813258457, 836.6666666666666 158.27324116376124, 840 158.27324116376124
 C 843.3333333333334 158.27324116376124, 846.6666666666666 159.27752541693792, 850 159.27752541693792
 C 853.3333333333334 159.27752541693792, 856.6666666666666 155.6084767631486, 860 155.6084767631486
 C 863.3333333333334 155.6084767631486, 866.6666666666666 156.3110519044862, 870 156.3110519044862
 C 873.3333333333334 156.3110519044862, 876.6666666666666 154.1585742735082, 880 154.1585742735082
 C 883.3333333333334 154.1585742735082, 886.6666666666666 155.56047469090208, 890 155.56047469090208
 C 893.3333333333334 155.56047469090208, 896.6666666666666 139.76600139651129, 900 139.76600139651129
 C 903.3333333333334 139.76600139651129, 906.6666666666666 143.90635747914956, 910 145.8056629914663
 C 913.3333333333334 147.70496850378305, 916.6666666666666 151.19843758662802, 920 151.19843758662802
 C 923.3333333333334 151.19843758662802, 926.6666666666666 147.48732993101203, 930 147.48732993101203
 C 933.3333333333334 147.48732993101203, 936.6666666666666 151.47610337790098, 940 151.47610337790098
 C 943.3333333333334 151.47610337790098, 946.6666666666666 140.4892905904022, 950 139.2299036023386
 C 953.3333333333334 137.970516614275, 956.6666666666666 136.99626543323416, 960 136.99626543323416
 C 963.3333333333334 136.99626543323416, 966.6666666666666 149.6472720869261, 970 150.59479931507124
 C 973.3333333333334 151.54232654321638, 976.6666666666666 151.58408276421775, 980 152.1819789099072
 C 983.3333333333334 152.77987505559665, 986.6666666666666 154.24395181795896, 990 154.24395181795896
 C 993.3333333333334 154.24395181795896, 996.6666666666666 151.68501743995353, 1000 151.40340120451015
 C 1003.3333333333334 151.12178496906677, 1006.6666666666666 150.90718321323868, 1010 150.90718321323868
 C 1013.3333333333334 150.90718321323868, 1016.6666666666666 152.12922868460012, 1020 152.8238256846205
 C 1023.3333333333334 153.51842268464085, 1026.6666666666667 154.675291622053, 1030 155.10670431295736
 C 1033.3333333333333 155.53811700386171, 1036.6666666666667 156.00982860171658, 1040 156.00982860171658
 C 1043.3333333333333 156.00982860171658, 1046.6666666666667 143.36511009745328, 1050 143.36511009745328
 C 1053.3333333333333 143.36511009745328, 1056.6666666666667 148.9207635696662, 1060 149.50204850275847
 C 1063.3333333333333 150.08333343585073, 1066.6666666666667 150.0561318529596, 1070 150.51837396527307
 C 1073.3333333333333 150.98061607758655, 1076.6666666666667 151.93749121202018, 1080 152.70030868607736
 C 1083.3333333333333 153.46312616013455, 1086.6666666666667 155.10621253580067, 1090 155.10621253580067
 C 1093.3333333333333 155.10621253580067, 1096.6666666666667 154.72021408068588, 1100 154.72021408068588
 C 1103.3333333333333 154.72021408068588, 1106.6666666666667 155.58668820590094, 1110 155.58668820590094
 C 1113.3333333333333 155.58668820590094, 1116.6666666666667 147.41580066862088, 1120 147.41580066862088
 C 1123.3333333333333 147.41580066862088, 1126.6666666666667 159.26223842135363, 1130 159.26223842135363
 C 1133.3333333333333 159.26223842135363, 1136.6666666666667 155.32377085969105, 1140 154.83968188787486
 C 1143.3333333333333 154.35559291605867, 1146.6666666666667 154.50261015105076, 1150 153.97090518081984
 C 1153.3333333333333 153.43920021058892, 1156.6666666666667 144.2418035247439, 1160 144.2418035247439
 C 1163.3333333333333 144.2418035247439, 1166.6666666666667 150.88966160865226, 1170 155.82449152385703
 C 1173.3333333333333 160.7593214390618, 1176.6666666666667 171.80030323686708, 1180 176.33377493337025
 C 1183.3333333333333 180.86724662987342, 1186.6666666666667 186.21919703823312, 1190 186.50713637324748
 C 1193.3333333333333 186.79507570826183, 1196.6666666666667 186.9581950238999, 1200 186.9581950238999
 C 1203.3333333333333 186.9581950238999, 1206.6666666666667 186.15633302612696, 1210 186.15633302612696
 C 1213.3333333333333 186.15633302612696, 1216.6666666666667 189.34748430988816, 1220 189.34748430988816
 C 1223.3333333333333 189.34748430988816, 1226.6666666666667 188.68705680474105, 1230 188.68705680474105
 C 1233.3333333333333 188.68705680474105, 1236.6666666666667 198.5736035758444, 1240 199.09124617172313
 C 1243.3333333333333 199.60888876760185, 1246.6666666666667 199.90001207391356, 1250 199.93033089743798
 C 1253.3333333333333 199.9606497209624, 1256.6666666666667 199.97243928480623, 1260 199.97841529826098
 C 1263.3333333333333 199.98439131171574, 1266.6666666666667 199.98787316954292, 1270 199.98943332856544
 C 1273.3333333333333 199.99099348758796, 1276.6666666666667 199.9909808131207, 1280 199.99240468576855
 C 1283.3333333333333 199.9938285584164, 1286.6666666666667 199.99746822858953, 1290 200
" fill="#0c4a6e" stroke="#0ea5e9" stroke-width="5" />
    <path d="M 0.000000 200.000000 C 3.3333333333333335 213.89798219057926, 6.666666666666666 241.6939465717378, 10 241.6939465717378
 C 13.333333333333334 241.6939465717378, 16.666666666666668 235.09399606111455, 20 235.09399606111455
 C 23.333333333333332 235.09399606111455, 26.666666666666668 235.69097253985436, 30 236.14080525236028
 C 33.333333333333336 236.5906379648662, 36.666666666666664 238.03924446761445, 40 238.03924446761445
 C 43.333333333333336 238.03924446761445, 46.666666666666664 237.07644148455745, 50 237.07644148455745
 C 53.333333333333336 237.07644148455745, 56.666666666666664 237.0959216944706, 60 237.12114795351843
 C 63.333333333333336 237.14637421256626, 66.66666666666667 237.36749215728472, 70 237.36749215728472
 C 73.33333333333333 237.36749215728472, 76.66666666666667 236.75362384250698, 80 236.3764662286471
 C 83.33333333333333 235.99930861478722, 86.66666666666667 235.05816551482363, 90 235.05816551482363
 C 93.33333333333333 235.05816551482363, 96.66666666666667 237.0317729335211, 100 237.3760853418284
 C 103.33333333333333 237.7203977501357, 106.66666666666667 238.04062336938304, 110 238.04062336938304
 C 113.33333333333333 238.04062336938304, 116.66666666666667 238.02586012387948, 120 238.01007649389044
 C 123.33333333333333 237.9942928639014, 126.66666666666667 237.968632945493, 130 237.9048275403873
 C 133.33333333333334 237.84102213528158, 136.66666666666666 236.84903245293648, 140 236.84903245293648
 C 143.33333333333334 236.84903245293648, 146.66666666666666 237.1843564312723, 150 237.1843564312723
 C 153.33333333333334 237.1843564312723, 156.66666666666666 237.15173263930774, 160 237.10418591377245
 C 163.33333333333334 237.05663918823717, 166.66666666666666 236.45814172086907, 170 236.45814172086907
 C 173.33333333333334 236.45814172086907, 176.66666666666666 238.90430927489007, 180 238.90430927489007
 C 183.33333333333334 238.90430927489007, 186.66666666666666 236.50536343575223, 190 236.34377631955044
 C 193.33333333333334 236.18218920334866, 196.66666666666666 236.07605287904727, 200 236.07605287904727
 C 203.33333333333334 236.07605287904727, 206.66666666666666 236.98580436770976, 210 237.03385248081437
 C 213.33333333333334 237.081900593919, 216.66666666666666 237.06044381058456, 220 237.11178920592116
 C 223.33333333333334 237.16313460125775, 226.66666666666666 243.64600233714975, 230 243.64600233714975
 C 233.33333333333334 243.64600233714975, 236.66666666666666 237.74498749969945, 240 237.74498749969945
 C 243.33333333333334 237.74498749969945, 246.66666666666666 248.8759732304988, 250 248.8759732304988
 C 253.33333333333334 248.8759732304988, 256.6666666666667 239.5533597106478, 260 239.5533597106478
 C 263.3333333333333 239.5533597106478, 266.6666666666667 245.45383643583617, 270 245.45383643583617
 C 273.3333333333333 245.45383643583617, 276.6666666666667 236.4893352663645, 280 236.4893352663645
 C 283.3333333333333 236.4893352663645, 286.6666666666667 237.53249557302027, 290 238.31173864501963
 C 293.3333333333333 239.090981717019, 296.6666666666667 240.1536913240154, 300 241.5711364136774
 C 303.3333333333333 242.98858150333942, 306.6666666666667 247.68642212196514, 310 247.68642212196514
 C 313.3333333333333 247.68642212196514, 316.6666666666667 240.6599349547915, 320 239.49088377305415
 C 323.3333333333333 238.3218325913168, 326.6666666666667 237.87900941224441, 330 237.2599630329314
 C 333.3333333333333 236.6409166536184, 336.6666666666667 236.08680980325207, 340 235.66932822110377
 C 343.3333333333333 235.25184663895547, 346.6666666666667 234.63648058567347, 350 234.63648058567347
 C 353.3333333333333 234.63648058567347, 356.6666666666667 235.70459586522196, 360 235.70459586522196
 C 363.3333333333333 235.70459586522196, 366.6666666666667 235.03996992651267, 370 233.96814595098147
 C 373.3333333333333 232.89632197545026, 376.6666666666667 212.67268559137645, 380 212.27855476743088
 C 383.3333333333333 211.8844239434853, 386.6666666666667 211.6707926747148, 390 211.6707926747148
 C 393.3333333333333 211.6707926747148, 396.6666666666667 212.54860014520224, 400 212.54860014520224
 C 403.3333333333333 212.54860014520224, 406.6666666666667 211.63510556975115, 410 211.55972718411851
 C 413.3333333333333 211.48434879848588, 416.6666666666667 211.432062438822, 420 211.432062438822
 C 423.3333333333333 211.432062438822, 426.6666666666667 211.44636020716126, 430 211.4746556600791
 C 433.3333333333333 211.50295111299693, 436.6666666666667 223.52323653392568, 440 223.52323653392568
 C 443.3333333333333 223.52323653392568, 446.6666666666667 210.363353366092, 450 210.363353366092
 C 453.3333333333333 210.363353366092, 456.6666666666667 212.9945536592094, 460 213.2389231397602
 C 463.3333333333333 213.483292620311, 466.6666666666667 213.65902904010997, 470 213.65902904010997
 C 473.3333333333333 213.65902904010997, 476.6666666666667 212.33030436977992, 480 212.33030436977992
 C 483.3333333333333 212.33030436977992, 486.6666666666667 219.91564987709796, 490 220.20131872632888
 C 493.3333333333333 220.4869875755598, 496.6666666666667 220.65449311636934, 500 220.65449311636934
 C 503.3333333333333 220.65449311636934, 506.6666666666667 218.86410311706845, 510 218.1255251026243
 C 513.3333333333334 217.38694708818014, 516.6666666666666 216.7093683999339, 520 216.15398312433155
 C 523.3333333333334 215.59859784872918, 526.6666666666666 214.71129544703234, 530 214.71129544703234
 C 533.3333333333334 214.71129544703234, 536.6666666666666 215.30821982426332, 540 215.9695480962926
 C 543.3333333333334 216.6308763683219, 546.6666666666666 220.6573567971541, 550 220.6573567971541
 C 553.3333333333334 220.6573567971541, 556.6666666666666 216.5394434946902, 560 216.5394434946902
 C 563.3333333333334 216.5394434946902, 566.6666666666666 219.847044451183, 570 219.847044451183
 C 573.3333333333334 219.847044451183, 576.6666666666666 214.8221034636171, 580 214.8221034636171
 C 583.3333333333334 214.8221034636171, 586.6666666666666 215.99226248694944, 590 217.393234171642
 C 593.3333333333334 218.79420585633457, 596.6666666666666 228.8972378024988, 600 228.8972378024988
 C 603.3333333333334 228.8972378024988, 606.6666666666666 220.5485302105938, 610 220.5485302105938
 C 613.3333333333334 220.5485302105938, 616.6666666666666 241.30382924061803, 620 241.30382924061803
 C 623.3333333333334 241.30382924061803, 626.6666666666666 240.92669613236998, 630 240.36310377563905
 C 633.3333333333334 239.7995114189081, 636.6666666666666 232.0213360708704, 640 232.0213360708704
 C 643.3333333333334 232.0213360708704, 646.6666666666666 232.03595609674426, 650 232.04679208035915
 C 653.3333333333334 232.05762806397405, 656.6666666666666 232.0917561991177, 660 232.0917561991177
 C 663.3333333333334 232.0917561991177, 666.6666666666666 229.49070292090917, 670 229.49070292090917
 C 673.3333333333334 229.49070292090917, 676.6666666666666 234.5079254573852, 680 235.79794287172652
 C 683.3333333333334 237.08796028606784, 686.6666666666666 237.44321758032225, 690 238.5893603403032
 C 693.3333333333334 239.73550310028412, 696.6666666666666 243.06523189797028, 700 243.06523189797028
 C 703.3333333333334 243.06523189797028, 706.6666666666666 237.4938958440933, 710 237.3048917391004
 C 713.3333333333334 237.11588763410754, 716.6666666666666 237.1970744618505, 720 237.00670999690027
 C 723.3333333333334 236.81634553195005, 726.6666666666666 230.44892258112952, 730 230.26792804279398
 C 733.3333333333334 230.08693350445844, 736.6666666666666 229.98503922048684, 740 229.98503922048684
 C 743.3333333333334 229.98503922048684, 746.6666666666666 248.54188846078043, 750 248.54188846078043
 C 753.3333333333334 248.54188846078043, 756.6666666666666 246.4720825712848, 760 246.4720825712848
 C 763.3333333333334 246.4720825712848, 766.6666666666666 246.5490335597797, 770 246.5490335597797
 C 773.3333333333334 246.5490335597797, 776.6666666666666 233.93721267843372, 780 233.93721267843372
 C 783.3333333333334 233.93721267843372, 786.6666666666666 236.63721204840064, 790 236.63721204840064
 C 793.3333333333334 236.63721204840064, 796.6666666666666 235.72850510092928, 800 234.5101776306692
 C 803.3333333333334 233.29185016040913, 806.6666666666666 222.02162649257608, 810 221.53329639345642
 C 813.3333333333334 221.04496629433677, 816.6666666666666 221.09018655707195, 820 220.75698123298056
 C 823.3333333333334 220.42377590888918, 826.6666666666666 219.35373186741543, 830 219.35373186741543
 C 833.3333333333334 219.35373186741543, 836.6666666666666 241.72675883623876, 840 241.72675883623876
 C 843.3333333333334 241.72675883623876, 846.6666666666666 240.72247458306208, 850 240.72247458306208
 C 853.3333333333334 240.72247458306208, 856.6666666666666 244.3915232368514, 860 244.3915232368514
 C 863.3333333333334 244.3915232368514, 866.6666666666666 243.6889480955138, 870 243.6889480955138
 C 873.3333333333334 243.6889480955138, 876.6666666666666 245.84142572649182, 880 245.84142572649182
 C 883.3333333333334 245.84142572649182, 886.6666666666666 244.43952530909795, 890 244.43952530909795
 C 893.3333333333334 244.43952530909795, 896.6666666666666 260.2339986034887, 900 260.2339986034887
 C 903.3333333333334 260.2339986034887, 906.6666666666666 256.09364252085044, 910 254.1943370085337
 C 913.3333333333334 252.29503149621695, 916.6666666666666 248.80156241337198, 920 248.80156241337198
 C 923.3333333333334 248.80156241337198, 926.6666666666666 252.512670068988, 930 252.512670068988
 C 933.3333333333334 252.512670068988, 936.6666666666666 248.52389662209902, 940 248.52389662209902
 C 943.3333333333334 248.52389662209902, 946.6666666666666 259.51070940959784, 950 260.7700963976614
 C 953.3333333333334 262.029483385725, 956.6666666666666 263.00373456676584, 960 263.00373456676584
 C 963.3333333333334 263.00373456676584, 966.6666666666666 250.3527279130739, 970 249.40520068492876
 C 973.3333333333334 248.45767345678362, 976.6666666666666 248.41591723578225, 980 247.8180210900928
 C 983.3333333333334 247.22012494440335, 986.6666666666666 245.75604818204104, 990 245.75604818204104
 C 993.3333333333334 245.75604818204104, 996.6666666666666 248.31498256004645, 1000 248.59659879548985
 C 1003.3333333333334 248.87821503093326, 1006.6666666666666 249.09281678676135, 1010 249.09281678676135
 C 1013.3333333333334 249.09281678676135, 1016.6666666666666 247.87077131539988, 1020 247.1761743153795
 C 1023.3333333333334 246.48157731535915, 1026.6666666666667 245.32470837794705, 1030 244.89329568704267
 C 1033.3333333333333 244.46188299613829, 1036.6666666666667 243.99017139828342, 1040 243.99017139828342
 C 1043.3333333333333 243.99017139828342, 1046.6666666666667 256.6348899025467, 1050 256.6348899025467
 C 1053.3333333333333 256.6348899025467, 1056.6666666666667 251.0792364303338, 1060 250.49795149724153
 C 1063.3333333333333 249.91666656414927, 1066.6666666666667 249.94386814704043, 1070 249.48162603472696
 C 1073.3333333333333 249.01938392241348, 1076.6666666666667 248.06250878797982, 1080 247.29969131392264
 C 1083.3333333333333 246.53687383986545, 1086.6666666666667 244.8937874641993, 1090 244.8937874641993
 C 1093.3333333333333 244.8937874641993, 1096.6666666666667 245.2797859193141, 1100 245.2797859193141
 C 1103.3333333333333 245.2797859193141, 1106.6666666666667 244.41331179409903, 1110 244.41331179409903
 C 1113.3333333333333 244.41331179409903, 1116.6666666666667 252.5841993313791, 1120 252.5841993313791
 C 1123.3333333333333 252.5841993313791, 1126.6666666666667 240.73776157864634, 1130 240.73776157864634
 C 1133.3333333333333 240.73776157864634, 1136.6666666666667 244.67622914030895, 1140 245.16031811212514
 C 1143.3333333333333 245.64440708394133, 1146.6666666666667 245.49738984894924, 1150 246.02909481918013
 C 1153.3333333333333 246.56079978941102, 1156.6666666666667 255.7581964752561, 1160 255.7581964752561
 C 1163.3333333333333 255.7581964752561, 1166.6666666666667 249.11033839134774, 1170 244.17550847614297
 C 1173.3333333333333 239.2406785609382, 1176.6666666666667 228.19969676313292, 1180 223.66622506662975
 C 1183.3333333333333 219.13275337012658, 1186.6666666666667 213.78080296176688, 1190 213.49286362675252
 C 1193.3333333333333 213.20492429173817, 1196.6666666666667 213.0418049761001, 1200 213.0418049761001
 C 1203.3333333333333 213.0418049761001, 1206.6666666666667 213.84366697387304, 1210 213.84366697387304
 C 1213.3333333333333 213.84366697387304, 1216.6666666666667 210.65251569011184, 1220 210.65251569011184
 C 1223.3333333333333 210.65251569011184, 1226.6666666666667 211.31294319525895, 1230 211.31294319525895
 C 1233.3333333333333 211.31294319525895, 1236.6666666666667 201.42639642415563, 1240 200.9087538282769
 C 1243.3333333333333 200.39111123239817, 1246.6666666666667 200.0999879260865, 1250 200.06966910256205
 C 1253.3333333333333 200.0393502790376, 1256.6666666666667 200.02756071519377, 1260 200.02158470173902
 C 1263.3333333333333 200.01560868828426, 1266.6666666666667 200.01212683045708, 1270 200.01056667143456
 C 1273.3333333333333 200.00900651241204, 1276.6666666666667 200.0090191868793, 1280 200.00759531423148
 C 1283.3333333333333 200.00617144158366, 1286.6666666666667 200.0025317714105, 1290 200
" fill="#0c4a6e" stroke="#0ea5e9" stroke-width="5" />
  </g>
</svg>