<svg 
  baseProfile="tiny"
  preserveAspectRatio="keep"
  version="1.2"
  viewBox="-2.000000 -2.000000 652.000000 102.000000"
  height="100%" width="100%"
  xmlns="http://www.w3.org/2000/svg"
  xmlns:ev="http://www.w3.org/2001/xml-events"
  xmlns:xlink="http://www.w3.org/1999/xlink"
>
  <g style="transform-origin: center center;">
    <path d="M 0 50 C 3.3333333333333335 50.13863026050248, 6.666666666666666 50.02309408528514, 10 50 C 13.333333333333334 49.97690591471486, 16.666666666666668 49.95150811570161, 20 49.16821843698509 C 23.333333333333332 48.38492875826858, 26.666666666666668 43.533810012505036, 30 39.18210352156683 C 33.333333333333336 34.830397030628625, 36.666666666666664 29.378459404341722, 40 25.01198165962595 C 43.333333333333336 20.645503914910176, 46.666666666666664 15.876579898326204, 50 14.16772763785778 C 53.333333333333336 12.458875377389356, 56.666666666666664 12.293896824040717, 60 12.136199599452773 C 63.333333333333336 11.97850237486483, 66.66666666666667 11.747073329678223, 70 11.904986640357812 C 73.33333333333333 12.062899951037402, 76.66666666666667 13.125132836389055, 80 13.041561857891836 C 83.33333333333333 12.957990879394616, 86.66666666666667 12.599772782043022, 90 12.485382318924671 C 93.33333333333333 12.37099185580632, 96.66666666666667 12.290103762389714, 100 12.230375688900438 C 103.33333333333333 12.170647615411161, 106.66666666666667 12.6101264106849, 110 12.67600570580639 C 113.33333333333333 12.741885000927878, 116.66666666666667 11.565870948151328, 120 10.639821671698364 C 123.33333333333333 9.7137723952454, 126.66666666666667 3.0428124674284476, 130 2.292560387800478 C 133.33333333333334 1.5423083081725082, 136.66666666666666 12.880906895398063, 140 12.57357195445676 C 143.33333333333334 12.266237013515457, 146.66666666666666 9.948052175319523, 150 9.88174841095816 C 153.33333333333334 9.815444646596797, 156.66666666666666 9.752770476635694, 160 10.132763195867703 C 163.33333333333334 10.512755915099712, 166.66666666666666 12.058861324809612, 170 12.725142712167035 C 173.33333333333334 13.391424099524457, 176.66666666666666 7.719355483868215, 180 10.509469931629532 C 183.33333333333334 13.299584379390849, 186.66666666666666 19.642506134132212, 190 24.919127485662486 C 193.33333333333334 30.19574883719276, 196.66666666666666 38.26709784768145, 200 42.0717752470284 C 203.33333333333334 45.87645264637535, 206.66666666666666 44.34471665071803, 210 43.73955085939 C 213.33333333333334 43.134385068061974, 216.66666666666666 40.69103559726486, 220 40.74873136677084 C 223.33333333333334 40.806427136276824, 226.66666666666666 42.7617363824018, 230 42.98280030876579 C 233.33333333333334 43.20386423512978, 236.66666666666666 42.88714961362541, 240 42.18224163602804 C 243.33333333333334 41.477333658430666, 246.66666666666666 35.88585912226986, 250 36.513108266594855 C 253.33333333333334 37.14035741091985, 256.6666666666667 38.29628079211453, 260 39.05170139729094 C 263.3333333333333 39.80712200246735, 266.6666666666667 40.80288652345106, 270 41.16678071188515 C 273.3333333333333 41.53067490031925, 276.6666666666667 39.31315416836472, 280 38.72540782956613 C 283.3333333333333 38.13766149076754, 286.6666666666667 38.42401855235234, 290 37.746124597382206 C 293.3333333333333 37.068230642412075, 296.6666666666667 32.219596914550266, 300 31.499360658580517 C 303.3333333333333 30.77912440261077, 306.6666666666667 30.803734176879313, 310 31.094698088478346 C 313.3333333333333 31.385662000077378, 316.6666666666667 33.44288439238514, 320 32.953817841427366 C 323.3333333333333 32.46475129046959, 326.6666666666667 31.31080133073705, 330 30.303036111050055 C 333.3333333333333 29.29527089136306, 336.6666666666667 27.82406869817604, 340 26.84674779575374 C 343.3333333333333 25.86942689333144, 346.6666666666667 28.895262189026575, 350 28.63255668075656 C 353.3333333333333 28.36985117248655, 356.6666666666667 22.764155196968964, 360 23.170586656010066 C 363.3333333333333 23.577018115051168, 366.6666666666667 26.658759272140884, 370 27.22746059357039 C 373.3333333333333 27.7961619149999, 376.6666666666667 28.664798993104615, 380 28.206152310544503 C 383.3333333333333 27.747505627984392, 386.6666666666667 26.93496494061182, 390 26.23937349778415 C 393.3333333333333 25.54378205495648, 396.6666666666667 24.31609896717902, 400 23.500198164598306 C 403.3333333333333 22.684297362017592, 406.6666666666667 37.16591317887177, 410 36.77518737204994 C 413.3333333333333 36.384461565228115, 416.6666666666667 8.804614114625114, 420 8.385406938163328 C 423.3333333333333 7.966199761701541, 426.6666666666667 10.981320902007427, 430 10.165360424035399 C 433.3333333333333 9.34939994606337, 436.6666666666667 8.483008438277722, 440 7.2807435849124715 C 443.3333333333333 6.078478731547222, 446.6666666666667 2.4388428677658194, 450 1.2795928180437244 C 453.3333333333333 0.1203427683216296, 456.6666666666667 10.856890649212033, 460 10.74366977176436 C 463.3333333333333 10.630448894316686, 466.6666666666667 3.3363027535091336, 470 4.223902158667478 C 473.3333333333333 5.111501563825822, 476.6666666666667 6.5393749965015076, 480 7.453142056987225 C 483.3333333333333 8.366909117472943, 486.6666666666667 9.30824162123796, 490 9.696392202139634 C 493.3333333333333 10.084542783041309, 496.6666666666667 2.78359963799468, 500 1.9885908602850364 C 503.3333333333333 1.1935820825753929, 506.6666666666667 1.3142327620108947, 510 2.38976577297187 C 513.3333333333334 3.4652987839328455, 516.6666666666666 7.291059112269293, 520 7.999808617296786 C 523.3333333333334 8.708558122324279, 526.6666666666666 6.457162408365968, 530 6.769360105699022 C 533.3333333333334 7.081557803032076, 536.6666666666666 10.750300703172943, 540 10.557747336422963 C 543.3333333333334 10.365193969672983, 546.6666666666666 5.926551081935779, 550 5.34415088467474 C 553.3333333333334 4.7617506874137, 556.6666666666666 4.9407320705625395, 560 5.459631581258336 C 563.3333333333334 5.978531091954132, 566.6666666666666 10.863144621207566, 570 10.412363198079348 C 573.3333333333334 9.96158177495113, 576.6666666666666 4.994141591817938, 580 2.8078520019105255 C 583.3333333333334 0.6215624120031138, 586.6666666666666 -0.6621488219451389, 590 0 C 593.3333333333334 0.6621488219451389, 596.6666666666666 40.78700925954755, 600 42.23854928947208 C 603.3333333333334 43.69008931939661, 606.6666666666666 42.68509935534757, 610 44.20517550278192 C 613.3333333333334 45.72525165021627, 616.6666666666666 48.353365996735015, 620 49.01127831508737 C 623.3333333333334 49.66919063343972, 626.6666666666666 49.999416803152144, 630 49.99958917593379 C 633.3333333333334 49.99976154871544, 636.6666666666666 49.9999999430758, 640 50 C 643.3333333333334 50.0000000569242, 646.6666666666666 50.000068470677704, 650 50 c 0 0, 0 0, 0 0C 646.6666666666666 49.999931529322296, 643.3333333333334 49.9999999430758, 640 50 C 636.6666666666666 50.0000000569242, 633.3333333333334 50.00023845128456, 630 50.00041082406621 C 626.6666666666666 50.000583196847856, 623.3333333333334 50.33080936656028, 620 50.98872168491263 C 616.6666666666666 51.646634003264985, 613.3333333333334 54.27474834978373, 610 55.79482449721808 C 606.6666666666666 57.31490064465243, 603.3333333333334 56.30991068060339, 600 57.76145071052792 C 596.6666666666666 59.21299074045245, 593.3333333333334 99.33785117805486, 590 100 C 586.6666666666666 100.66214882194514, 583.3333333333334 99.37843758799688, 580 97.19214799808947 C 576.6666666666666 95.00585840818206, 573.3333333333334 90.03841822504887, 570 89.58763680192065 C 566.6666666666666 89.13685537879243, 563.3333333333334 94.02146890804588, 560 94.54036841874166 C 556.6666666666666 95.05926792943745, 553.3333333333334 95.2382493125863, 550 94.65584911532525 C 546.6666666666666 94.07344891806422, 543.3333333333334 89.63480603032701, 540 89.44225266357704 C 536.6666666666666 89.24969929682706, 533.3333333333334 92.91844219696793, 530 93.23063989430098 C 526.6666666666666 93.54283759163403, 523.3333333333334 91.29144187767572, 520 92.0001913827032 C 516.6666666666666 92.7089408877307, 513.3333333333334 96.53470121606715, 510 97.61023422702813 C 506.6666666666667 98.68576723798911, 503.3333333333333 98.80641791742461, 500 98.01140913971497 C 496.6666666666667 97.21640036200532, 493.3333333333333 89.91545721695869, 490 90.30360779786037 C 486.6666666666667 90.69175837876205, 483.3333333333333 91.63309088252706, 480 92.54685794301278 C 476.6666666666667 93.46062500349849, 473.3333333333333 94.88849843617417, 470 95.77609784133253 C 466.6666666666667 96.66369724649087, 463.3333333333333 89.36955110568331, 460 89.25633022823564 C 456.6666666666667 89.14310935078797, 453.3333333333333 99.87965723167837, 450 98.72040718195628 C 446.6666666666667 97.56115713223419, 443.3333333333333 93.92152126845278, 440 92.71925641508753 C 436.6666666666667 91.51699156172228, 433.3333333333333 90.65060005393663, 430 89.8346395759646 C 426.6666666666667 89.01867909799257, 423.3333333333333 92.03380023829845, 420 91.61459306183667 C 416.6666666666667 91.19538588537489, 413.3333333333333 63.615538434771885, 410 63.22481262795006 C 406.6666666666667 62.83408682112823, 403.3333333333333 77.31570263798241, 400 76.4998018354017 C 396.6666666666667 75.68390103282098, 393.3333333333333 74.45621794504352, 390 73.76062650221584 C 386.6666666666667 73.06503505938818, 383.3333333333333 72.2524943720156, 380 71.7938476894555 C 376.6666666666667 71.33520100689539, 373.3333333333333 72.2038380850001, 370 72.77253940642962 C 366.6666666666667 73.34124072785912, 363.3333333333333 76.42298188494883, 360 76.82941334398993 C 356.6666666666667 77.23584480303103, 353.3333333333333 71.63014882751345, 350 71.36744331924343 C 346.6666666666667 71.10473781097343, 343.3333333333333 74.13057310666856, 340 73.15325220424626 C 336.6666666666667 72.17593130182397, 333.3333333333333 70.70472910863694, 330 69.69696388894994 C 326.6666666666667 68.68919866926295, 323.3333333333333 67.5352487095304, 320 67.04618215857263 C 316.6666666666667 66.55711560761486, 313.3333333333333 68.61433799992263, 310 68.90530191152166 C 306.6666666666667 69.19626582312068, 303.3333333333333 69.22087559738924, 300 68.50063934141949 C 296.6666666666667 67.78040308544973, 293.3333333333333 62.931769357587925, 290 62.253875402617794 C 286.6666666666667 61.57598144764766, 283.3333333333333 61.86233850923246, 280 61.27459217043387 C 276.6666666666667 60.68684583163528, 273.3333333333333 58.46932509968075, 270 58.83321928811485 C 266.6666666666667 59.19711347654894, 263.3333333333333 60.19287799753265, 260 60.94829860270906 C 256.6666666666667 61.70371920788547, 253.33333333333334 62.85964258908015, 250 63.486891733405145 C 246.66666666666666 64.11414087773014, 243.33333333333334 58.522666341569334, 240 57.81775836397196 C 236.66666666666666 57.11285038637459, 233.33333333333334 56.79613576487022, 230 57.01719969123421 C 226.66666666666666 57.2382636175982, 223.33333333333334 59.193572863723176, 220 59.25126863322916 C 216.66666666666666 59.30896440273514, 213.33333333333334 56.865614931938026, 210 56.26044914061 C 206.66666666666666 55.65528334928197, 203.33333333333334 54.12354735362465, 200 57.9282247529716 C 196.66666666666666 61.73290215231855, 193.33333333333334 69.80425116280725, 190 75.08087251433751 C 186.66666666666666 80.35749386586778, 183.33333333333334 86.70041562060915, 180 89.49053006837048 C 176.66666666666666 92.28064451613179, 173.33333333333334 86.60857590047554, 170 87.27485728783296 C 166.66666666666666 87.94113867519039, 163.33333333333334 89.48724408490028, 160 89.86723680413229 C 156.66666666666666 90.24722952336431, 153.33333333333334 90.1845553534032, 150 90.11825158904185 C 146.66666666666666 90.05194782468048, 143.33333333333334 87.73376298648455, 140 87.42642804554325 C 136.66666666666666 87.11909310460194, 133.33333333333334 98.45769169182749, 130 97.70743961219952 C 126.66666666666667 96.95718753257155, 123.33333333333333 90.2862276047546, 120 89.36017832830163 C 116.66666666666667 88.43412905184867, 113.33333333333333 87.25811499907212, 110 87.32399429419361 C 106.66666666666667 87.3898735893151, 103.33333333333333 87.82935238458884, 100 87.76962431109956 C 96.66666666666667 87.70989623761028, 93.33333333333333 87.62900814419368, 90 87.51461768107532 C 86.66666666666667 87.40022721795698, 83.33333333333333 87.04200912060539, 80 86.95843814210816 C 76.66666666666667 86.87486716361094, 73.33333333333333 87.9371000489626, 70 88.0950133596422 C 66.66666666666667 88.25292667032178, 63.333333333333336 88.02149762513517, 60 87.86380040054723 C 56.666666666666664 87.70610317595929, 53.333333333333336 87.54112462261064, 50 85.83227236214222 C 46.666666666666664 84.1234201016738, 43.333333333333336 79.35449608508982, 40 74.98801834037405 C 36.666666666666664 70.62154059565827, 33.333333333333336 65.16960296937137, 30 60.81789647843317 C 26.666666666666668 56.466189987494964, 23.333333333333332 51.61507124173142, 20 50.83178156301491 C 16.666666666666668 50.04849188429839, 13.333333333333334 50.02309408528514, 10 50 C 3.3333333333333335 49.86136973949752, 6.666666666666666 49.97690591471486, 10 50 Z" fill="#0ea5e9" stroke="#0c4a6e" stroke-width="2" />
  </g>
</svg>