<svg baseProfile="tiny" preserveAspectRatio="true" version="1.2" viewBox="-1.000000 1.000000 331.000000 22.000000"
  height="100%" width="100%" xmlns="http://www.w3.org/2000/svg" xmlns:ev="http://www.w3.org/2001/xml-events"
  xmlns:xlink="http://www.w3.org/1999/xlink">
  <g style="transform: scaleY(-1); transform-origin: center center;">
    <path d="M 0 0 C 3.3333333333333335 4.294897777915174, 6.666666666666666 12.79709208210682, 10 12.88469333374552
 C 13.333333333333334 12.97229458538422, 16.666666666666668 13.017449093333425, 20 13.017449093333425
 C 23.333333333333332 13.017449093333425, 26.666666666666668 12.696649296277204, 30 12.696649296277204
 C 33.333333333333336 12.696649296277204, 36.666666666666664 12.929054555092707, 40 12.929054555092707
 C 43.333333333333336 12.929054555092707, 46.666666666666664 12.793172641604762, 50 12.793172641604762
 C 53.333333333333336 12.793172641604762, 56.666666666666664 12.959833587103558, 60 13.078339967199636
 C 63.333333333333336 13.196846347295713, 66.66666666666667 13.27889295729058, 70 13.55029118714792
 C 73.33333333333333 13.82168941700526, 76.66666666666667 16.51279863992113, 80 16.51279863992113
 C 83.33333333333333 16.51279863992113, 86.66666666666667 15.809111971913783, 90 14.82095212640676
 C 93.33333333333333 13.832792280899739, 96.66666666666667 2.8667049650125764, 100 2.8570137470046637
 C 103.33333333333333 2.847322528996751, 106.66666666666667 2.8424592354804243, 110 2.8424592354804243
 C 113.33333333333333 2.8424592354804243, 116.66666666666667 3.034302345710561, 120 3.2312079891231034
 C 123.33333333333333 3.428113632535646, 126.66666666666667 4.070544653228513, 130 4.4606745322467205
 C 133.33333333333334 4.850804411264928, 136.66666666666666 5.577404357755426, 140 5.577404357755426
 C 143.33333333333334 5.577404357755426, 146.66666666666666 4.944258094931781, 150 4.944258094931781
 C 153.33333333333334 4.944258094931781, 156.66666666666666 6.8618081439291085, 160 7.760558858742036
 C 163.33333333333334 8.659309573554964, 166.66666666666666 9.826320666125552, 170 10.346578430289062
 C 173.33333333333334 10.866836194452572, 176.66666666666666 11.46424476893701, 180 11.46424476893701
 C 183.33333333333334 11.46424476893701, 186.66666666666666 10.215700423728327, 190 10.215700423728327
 C 193.33333333333334 10.215700423728327, 196.66666666666666 10.944274874780595, 200 10.944274874780595
 C 203.33333333333334 10.944274874780595, 206.66666666666666 5.519287110971014, 210 5.519287110971014
 C 213.33333333333334 5.519287110971014, 216.66666666666666 12.18576313411345, 220 12.945660439188893
 C 223.33333333333334 13.705557744264336, 226.66666666666666 13.607477601124286, 230 14.29217833672906
 C 233.33333333333334 14.976879072333835, 236.66666666666666 18.621087374612834, 240 18.621087374612834
 C 243.33333333333334 18.621087374612834, 246.66666666666666 16.92760655080723, 250 16.140450477288738
 C 253.33333333333334 15.353294403770246, 256.6666666666667 13.88722613692147, 260 13.88722613692147
 C 263.3333333333333 13.88722613692147, 266.6666666666667 15.336374074798004, 270 16.311607240517954
 C 273.3333333333333 17.286840406237904, 276.6666666666667 20, 280 20
 C 283.3333333333333 20, 286.6666666666667 18.55741912942191, 290 16.85001929012342
 C 293.3333333333333 15.142619450824931, 296.6666666666667 3.150450940985782, 300 3.150450940985782
 C 303.3333333333333 3.150450940985782, 306.6666666666667 3.4296724350199543, 310 3.4296724350199543
 C 313.3333333333333 3.4296724350199543, 316.6666666666667 0, 320 0
 C 323.3333333333333 0, 326.6666666666667 0, 330 0
 Z
" fill="white" stroke="red" stroke-width="1" />
  </g>
</svg>