<svg 
  baseProfile="tiny"
  preserveAspectRatio="true"
  version="1.2"
  viewBox="0 0 640 200"
  height="100%" width="100%"
  xmlns="http://www.w3.org/2000/svg"
  xmlns:ev="http://www.w3.org/2001/xml-events"
  xmlns:xlink="http://www.w3.org/1999/xlink"
>
  <g>
    <rect width="6" height="6" x="2" y="194" rx="5" ry="5" fill="#F59E0B" />
    <rect width="6" height="6" x="12" y="194" rx="5" ry="5" fill="#F59E0B" />
    <rect width="6" height="6" x="22" y="194" rx="5" ry="5" fill="#F59E0B" />
    <rect width="6" height="6" x="32" y="194" rx="5" ry="5" fill="#F59E0B" />
    <rect width="6" height="6" x="42" y="194" rx="5" ry="5" fill="#F59E0B" />
    <rect width="6" height="6" x="52" y="194" rx="5" ry="5" fill="#F59E0B" />
    <rect width="6" height="6" x="62" y="194" rx="5" ry="5" fill="#F59E0B" />
    <rect width="6" height="6" x="72" y="194" rx="5" ry="5" fill="#F59E0B" />
    <rect width="6" height="6" x="82" y="194" rx="5" ry="5" fill="#F59E0B" />
    <rect width="6" height="6" x="92" y="194" rx="5" ry="5" fill="#F59E0B" />
    <rect width="6" height="6" x="102" y="194" rx="5" ry="5" fill="#F59E0B" />
    <rect width="6" height="6" x="112" y="194" rx="5" ry="5" fill="#F59E0B" />
    <rect width="6" height="11.911416280576333" x="122" y="188.08858371942367" rx="5" ry="5" fill="#F59E0B" />
    <rect width="6" height="6" x="132" y="194" rx="5" ry="5" fill="#F59E0B" />
    <rect width="6" height="19.94927652360734" x="142" y="180.05072347639265" rx="5" ry="5" fill="#F59E0B" />
    <rect width="6" height="41.88981552065532" x="152" y="158.1101844793447" rx="5" ry="5" fill="#F59E0B" />
    <rect width="6" height="62.95731740977685" x="162" y="137.04268259022317" rx="5" ry="5" fill="#F59E0B" />
    <rect width="6" height="48.39279894473243" x="172" y="151.60720105526758" rx="5" ry="5" fill="#F59E0B" />
    <rect width="6" height="29.99966665430618" x="182" y="170.00033334569383" rx="5" ry="5" fill="#F59E0B" />
    <rect width="6" height="57.397151970657376" x="192" y="142.60284802934262" rx="5" ry="5" fill="#F59E0B" />
    <rect width="6" height="59.58936424557888" x="202" y="140.41063575442112" rx="5" ry="5" fill="#F59E0B" />
    <rect width="6" height="26.592414835030247" x="212" y="173.40758516496976" rx="5" ry="5" fill="#F59E0B" />
    <rect width="6" height="15.699775620249664" x="222" y="184.30022437975032" rx="5" ry="5" fill="#F59E0B" />
    <rect width="6" height="23.696672082788574" x="232" y="176.30332791721142" rx="5" ry="5" fill="#F59E0B" />
    <rect width="6" height="79.70555400375768" x="242" y="120.29444599624233" rx="5" ry="5" fill="#F59E0B" />
    <rect width="6" height="23.848001611071872" x="252" y="176.15199838892812" rx="5" ry="5" fill="#F59E0B" />
    <rect width="6" height="24.077595701488175" x="262" y="175.92240429851182" rx="5" ry="5" fill="#F59E0B" />
    <rect width="6" height="42.52538641325509" x="272" y="157.4746135867449" rx="5" ry="5" fill="#F59E0B" />
    <rect width="6" height="25.379567406038223" x="282" y="174.6204325939618" rx="5" ry="5" fill="#F59E0B" />
    <rect width="6" height="19.29714789635865" x="292" y="180.70285210364133" rx="5" ry="5" fill="#F59E0B" />
    <rect width="6" height="30.106759055868874" x="302" y="169.89324094413112" rx="5" ry="5" fill="#F59E0B" />
    <rect width="6" height="61.91657575810194" x="312" y="138.08342424189806" rx="5" ry="5" fill="#F59E0B" />
    <rect width="6" height="32.409161927356976" x="322" y="167.590838072643" rx="5" ry="5" fill="#F59E0B" />
    <rect width="6" height="43.77667006770169" x="332" y="156.2233299322983" rx="5" ry="5" fill="#F59E0B" />
    <rect width="6" height="39.11116011871735" x="342" y="160.88883988128265" rx="5" ry="5" fill="#F59E0B" />
    <rect width="6" height="76.94204683275493" x="352" y="123.05795316724506" rx="5" ry="5" fill="#F59E0B" />
    <rect width="6" height="41.523293199282186" x="362" y="158.4767068007178" rx="5" ry="5" fill="#F59E0B" />
    <rect width="6" height="35.10966650495981" x="372" y="164.89033349504018" rx="5" ry="5" fill="#F59E0B" />
    <rect width="6" height="68.17873518896785" x="382" y="131.82126481103217" rx="5" ry="5" fill="#F59E0B" />
    <rect width="6" height="27.818793623369785" x="392" y="172.1812063766302" rx="5" ry="5" fill="#F59E0B" />
    <rect width="6" height="40.57809101650698" x="402" y="159.421908983493" rx="5" ry="5" fill="#F59E0B" />
    <rect width="6" height="31.58553717711044" x="412" y="168.41446282288956" rx="5" ry="5" fill="#F59E0B" />
    <rect width="6" height="25.42226383592569" x="422" y="174.5777361640743" rx="5" ry="5" fill="#F59E0B" />
    <rect width="6" height="33.58013185574968" x="432" y="166.4198681442503" rx="5" ry="5" fill="#F59E0B" />
    <rect width="6" height="38.30904460595772" x="442" y="161.69095539404228" rx="5" ry="5" fill="#F59E0B" />
    <rect width="6" height="51.740730470512105" x="452" y="148.25926952948788" rx="5" ry="5" fill="#F59E0B" />
    <rect width="6" height="58.051058716487724" x="462" y="141.94894128351228" rx="5" ry="5" fill="#F59E0B" />
    <rect width="6" height="56.860692245972956" x="472" y="143.13930775402704" rx="5" ry="5" fill="#F59E0B" />
    <rect width="6" height="55.741301160799296" x="482" y="144.25869883920072" rx="5" ry="5" fill="#F59E0B" />
    <rect width="6" height="48.324738349747314" x="492" y="151.67526165025268" rx="5" ry="5" fill="#F59E0B" />
    <rect width="6" height="42.47578134343789" x="502" y="157.5242186565621" rx="5" ry="5" fill="#F59E0B" />
    <rect width="6" height="34.37023642218489" x="512" y="165.6297635778151" rx="5" ry="5" fill="#F59E0B" />
    <rect width="6" height="6" x="522" y="194" rx="5" ry="5" fill="#F59E0B" />
    <rect width="6" height="42.341374108894115" x="532" y="157.65862589110588" rx="5" ry="5" fill="#F59E0B" />
    <rect width="6" height="24.584307571423718" x="542" y="175.41569242857628" rx="5" ry="5" fill="#F59E0B" />
    <rect width="6" height="147.25046236043343" x="552" y="52.74953763956658" rx="5" ry="5" fill="#F59E0B" />
    <rect width="6" height="78.92418876315304" x="562" y="121.07581123684696" rx="5" ry="5" fill="#F59E0B" />
    <rect width="6" height="59.771139633654016" x="572" y="140.228860366346" rx="5" ry="5" fill="#F59E0B" />
    <rect width="6" height="108.52100266448264" x="582" y="91.47899733551736" rx="5" ry="5" fill="#F59E0B" />
    <rect width="6" height="200" x="592" y="0" rx="5" ry="5" fill="#F59E0B" />
    <rect width="6" height="122.67489798952009" x="602" y="77.32510201047991" rx="5" ry="5" fill="#F59E0B" />
    <rect width="6" height="49.85737444972209" x="612" y="150.1426255502779" rx="5" ry="5" fill="#F59E0B" />
    <rect width="6" height="164.49027509854378" x="622" y="35.50972490145623" rx="5" ry="5" fill="#F59E0B" />
    <rect width="6" height="6" x="632" y="194" rx="5" ry="5" fill="#F59E0B" />
  </g>
</svg>